<svg id="Layer_1" data-name="Layer 1" xmlns="http://www.w3.org/2000/svg" viewBox="0 0 98.8 98.79"><defs><style>.cls-1{fill:#e8bc23;}</style></defs><g id="analytics"><g id="Group_47" data-name="Group 47"><g id="Group_46" data-name="Group 46"><path id="Path_1004" data-name="Path 1004" class="cls-1" d="M116.1,647H21.42a2.06,2.06,0,1,0,0,4.11H116.1a2.06,2.06,0,1,0,0-4.11Z" transform="translate(-19.36 -552.28)"/></g></g><g id="Group_49" data-name="Group 49"><g id="Group_48" data-name="Group 48"><path id="Path_1005" data-name="Path 1005" class="cls-1" d="M37.89,622.26H25.54a2.06,2.06,0,0,0-2.06,2.06V649a2.07,2.07,0,0,0,2.06,2.06H37.89a2.07,2.07,0,0,0,2-2.06v-24.7A2.05,2.05,0,0,0,37.89,622.26ZM35.83,647H27.59V626.38h8.24V647Z" transform="translate(-19.36 -552.28)"/></g></g><g id="Group_51" data-name="Group 51"><g id="Group_50" data-name="Group 50"><path id="Path_1006" data-name="Path 1006" class="cls-1" d="M62.58,601.68H50.23a2.05,2.05,0,0,0-2,2.06V649a2.05,2.05,0,0,0,2,2.06H62.58A2.06,2.06,0,0,0,64.64,649V603.74A2.06,2.06,0,0,0,62.58,601.68Zm-2,45.28H52.29V605.79h8.24Z" transform="translate(-19.36 -552.28)"/></g></g><g id="Group_53" data-name="Group 53"><g id="Group_52" data-name="Group 52"><path id="Path_1007" data-name="Path 1007" class="cls-1" d="M87.28,609.91H74.93A2.07,2.07,0,0,0,72.87,612v37a2.07,2.07,0,0,0,2.06,2.05H87.28A2.05,2.05,0,0,0,89.34,649V612A2.06,2.06,0,0,0,87.28,609.91ZM85.22,647H77V614h8.23Z" transform="translate(-19.36 -552.28)"/></g></g><g id="Group_55" data-name="Group 55"><g id="Group_54" data-name="Group 54"><path id="Path_1008" data-name="Path 1008" class="cls-1" d="M112,585.21H99.63a2.06,2.06,0,0,0-2.06,2.06V649a2.05,2.05,0,0,0,2.06,2.05H112A2.05,2.05,0,0,0,114,649V587.27A2.06,2.06,0,0,0,112,585.21ZM109.92,647h-8.23V589.33h8.23Z" transform="translate(-19.36 -552.28)"/></g></g><g id="Group_57" data-name="Group 57"><g id="Group_56" data-name="Group 56"><path id="Path_1009" data-name="Path 1009" class="cls-1" d="M31.71,589.33a8.24,8.24,0,1,0,8.23,8.23A8.23,8.23,0,0,0,31.71,589.33Zm0,12.35a4.12,4.12,0,1,1,4.12-4.12h0A4.13,4.13,0,0,1,31.71,601.68Z" transform="translate(-19.36 -552.28)"/></g></g><g id="Group_59" data-name="Group 59"><g id="Group_58" data-name="Group 58"><path id="Path_1010" data-name="Path 1010" class="cls-1" d="M56.41,568.75A8.23,8.23,0,1,0,64.64,577,8.22,8.22,0,0,0,56.41,568.75Zm0,12.35A4.12,4.12,0,1,1,60.53,577h0A4.14,4.14,0,0,1,56.41,581.1Z" transform="translate(-19.36 -552.28)"/></g></g><g id="Group_61" data-name="Group 61"><g id="Group_60" data-name="Group 60"><path id="Path_1011" data-name="Path 1011" class="cls-1" d="M81.11,577a8.24,8.24,0,1,0,8.23,8.23A8.24,8.24,0,0,0,81.11,577Zm0,12.35a4.12,4.12,0,1,1,4.11-4.12h0A4.11,4.11,0,0,1,81.11,589.33Z" transform="translate(-19.36 -552.28)"/></g></g><g id="Group_63" data-name="Group 63"><g id="Group_62" data-name="Group 62"><path id="Path_1012" data-name="Path 1012" class="cls-1" d="M105.8,552.28a8.24,8.24,0,1,0,8.24,8.24A8.24,8.24,0,0,0,105.8,552.28Zm0,12.35a4.12,4.12,0,1,1,4.12-4.11h0A4.11,4.11,0,0,1,105.8,564.63Z" transform="translate(-19.36 -552.28)"/></g></g><g id="Group_65" data-name="Group 65"><g id="Group_64" data-name="Group 64"><path id="Path_1013" data-name="Path 1013" class="cls-1" d="M102.9,563.42a2.06,2.06,0,0,0-2.91,0l-16,16a2.06,2.06,0,0,0,2.91,2.91l16-16A2.06,2.06,0,0,0,102.9,563.42Z" transform="translate(-19.36 -552.28)"/></g></g><g id="Group_67" data-name="Group 67"><g id="Group_66" data-name="Group 66"><path id="Path_1014" data-name="Path 1014" class="cls-1" d="M76.13,580.46l-13.22-3.77a2.06,2.06,0,0,0-1.13,4L75,584.42a2.06,2.06,0,0,0,1.13-4Z" transform="translate(-19.36 -552.28)"/></g></g><g id="Group_69" data-name="Group 69"><g id="Group_68" data-name="Group 68"><path id="Path_1015" data-name="Path 1015" class="cls-1" d="M53.2,579.55a2.05,2.05,0,0,0-2.89-.33L34.79,591.59a2.06,2.06,0,1,0,2.57,3.22l15.52-12.37a2.05,2.05,0,0,0,.32-2.89Z" transform="translate(-19.36 -552.28)"/></g></g></g></svg>