<svg id="Layer_1" data-name="Layer 1" xmlns="http://www.w3.org/2000/svg" viewBox="0 0 87.41 38.44"><defs><style>.cls-1{fill:#e8bc23;}</style></defs><path id="Path_1448" data-name="Path 1448" class="cls-1" d="M602.28-117.07a10.94,10.94,0,0,0-5.32-7.52l.51-.58a10.24,10.24,0,0,0,2.13-10.9,9.81,9.81,0,0,0-8.85-6.82c-3.68-.28-7.4-.12-11.1-.13-2.09,0-2.82.74-2.82,2.85v32.84c0,1.82.73,2.67,2.35,2.68,4.42,0,8.85.09,13.28,0a10.6,10.6,0,0,0,10-11.18A12.1,12.1,0,0,0,602.28-117.07Zm-21.1-21.62c3.18,0,6.31-.2,9.41.06a6.21,6.21,0,0,1,5.45,6.47,6.28,6.28,0,0,1-5.85,6.13c-3,.16-5.93,0-9,0Zm12.47,29.49a2.86,2.86,0,0,1-.7.17H581.17v-12.49a1.76,1.76,0,0,1,.45-.12c3.5,0,7-.08,10.49,0a6.18,6.18,0,0,1,6,5.56,6.31,6.31,0,0,1-4.44,6.88Zm36.51-31.16a4.73,4.73,0,0,0,0-.84A2.11,2.11,0,0,0,628-143a2,2,0,0,0-2,1.69,7.75,7.75,0,0,0-.1,1.44c0,7.85,0,15.7,0,23.56a7.39,7.39,0,0,1-7.35,7.43,7.21,7.21,0,0,1-2.48-.41c-3.18-1.09-5-3.83-5-7.57,0-7.85,0-15.7,0-23.56,0-1.6-.82-2.56-2.09-2.58s-2.16,1-2.16,2.62v12.31h0c0,4.1-.08,8.21,0,12.32A11.7,11.7,0,0,0,619-104.65a11.7,11.7,0,0,0,11.13-11.8c0-8,0-15.93,0-23.9Zm33.19-2.26c-1.13-.78-2.33-.4-3.32,1.07-1.39,2.07-2.77,4.15-4.15,6.22l-6.53,9.79L641.68-137c-1.09-1.64-2.16-3.3-3.3-4.92a2.09,2.09,0,0,0-2.85-.77,2.07,2.07,0,0,0-.7.65,2.32,2.32,0,0,0,.23,2.8q4.1,6.12,8.17,12.25c1.31,2,3.13,3.81,3.78,6s.21,4.78.23,7.19,0,4.67,0,7a2.08,2.08,0,0,0,1.92,2.22,2.06,2.06,0,0,0,.74-.08,2.18,2.18,0,0,0,1.56-2.41c0-4.27,0-8.54,0-12.8a3.91,3.91,0,0,1,.61-2c3.78-5.78,7.63-11.54,11.47-17.29.94-1.42.85-2.64-.24-3.4Z" transform="translate(-576.83 143.06)"/></svg>