<svg id="Layer_1" data-name="Layer 1" xmlns="http://www.w3.org/2000/svg" viewBox="0 0 85.82 60.06"><defs><style>.cls-1{fill:#e8bc23;}</style></defs><g id="dollar"><path id="Path_1449" data-name="Path 1449" class="cls-1" d="M975.83-121.12c.16-.6.34-1.19.47-1.8A20.44,20.44,0,0,1,997.75-139c.77.06,1.54.18,2.19.26,0-2.55.1-5.09,0-7.62a4.62,4.62,0,0,1,2-4.22,14.86,14.86,0,0,1,5.13-2.35,52.59,52.59,0,0,1,17.17-1.59,40.25,40.25,0,0,1,11.81,2.11,18.3,18.3,0,0,1,3.57,1.78A5.11,5.11,0,0,1,1042-146c0,5.44,0,10.89,0,16.33v.88c1.61.12,3.19.19,4.76.36a35.2,35.2,0,0,1,10.23,2.32,16,16,0,0,1,1.93,1,5.16,5.16,0,0,1,2.73,4.89c-.09,5.77-.07,11.55,0,17.33a5,5,0,0,1-2.35,4.42,18.82,18.82,0,0,1-6.79,2.68,56.25,56.25,0,0,1-17.65.91,35.17,35.17,0,0,1-10.07-2.24,9.06,9.06,0,0,1-3.88-2.68c-.1-.13-.25-.26-.28-.41-.22-1.25-1.1-1.24-2.12-1.33-2.94-.26-5.86-.69-8.8-1a1.76,1.76,0,0,0-1.1.35,20.51,20.51,0,0,1-28.7-4.15,20.51,20.51,0,0,1-3.87-9.35,3,3,0,0,0-.18-.5Zm3.43,2.5a17,17,0,0,0,17,17.08,17,17,0,0,0,17.07-17,17,17,0,0,0-17-17.08h-.1A17.06,17.06,0,0,0,979.26-118.62Zm41.48-32.58a45.11,45.11,0,0,0-12.82,1.62,19.59,19.59,0,0,0-3.74,1.6c-1.14.63-1.13,1.18,0,1.85a15.6,15.6,0,0,0,2.92,1.38A35.67,35.67,0,0,0,1017-143a49.12,49.12,0,0,0,17-1.6,17,17,0,0,0,3.36-1.45c1.32-.74,1.3-1.24,0-2a15.09,15.09,0,0,0-2.65-1.21A45,45,0,0,0,1020.74-151.2Zm20.1,25.9a45.41,45.41,0,0,0-11.62,1.2,28.4,28.4,0,0,0-5.19,2c-1.19.57-1.17,1.14,0,1.82a15.18,15.18,0,0,0,3.16,1.48A39.77,39.77,0,0,0,1038.5-117a46.87,46.87,0,0,0,14.91-1.57,26.84,26.84,0,0,0,4.29-2c.58-.29.6-.83,0-1.17a18.68,18.68,0,0,0-3-1.52,43.73,43.73,0,0,0-13.92-2Zm-17.39,18.22c0,1.41,0,2.77,0,4.13a1.69,1.69,0,0,0,1,1.77,22.62,22.62,0,0,0,3.9,1.63,50.92,50.92,0,0,0,23.86.27,13.79,13.79,0,0,0,5.16-2.06,1.78,1.78,0,0,0,.81-1.07c.09-1.6,0-3.21,0-4.92-5.6,2.55-11.44,3.14-17.37,3.17s-11.8-.53-17.37-2.93Zm-.14-9.36c0,1.37,0,2.85,0,4.33a1.33,1.33,0,0,0,.81,1.41,26.29,26.29,0,0,0,3.92,1.62,50.8,50.8,0,0,0,23.36.42,36.28,36.28,0,0,0,5.63-2,1.69,1.69,0,0,0,1.17-1.5c0-1.52,0-3,0-4.39A53.13,53.13,0,0,1,1023.31-116.44Zm15.25-26a53.3,53.3,0,0,1-35,.24c0,1.26,0,2.65,0,4a1.08,1.08,0,0,0,.54.68c1.38.81,2.79,1.6,4.2,2.37a5.31,5.31,0,0,0,1.42.63,51.91,51.91,0,0,0,22.33-.09,34.69,34.69,0,0,0,5.29-2,2,2,0,0,0,1.16-2c0-1.34,0-2.68,0-3.94Zm-.07,9.38c-8.22,3.46-16.75,3.48-25.17,2.75.85,2,1.7,4,2.6,6a.81.81,0,0,0,.6.31c1.08.06,2.17,0,3.26.13a2.33,2.33,0,0,0,1.8-.59A11,11,0,0,1,1024-126a32.57,32.57,0,0,1,10.69-2.49c1.26-.13,2.53-.19,3.82-.28Zm-26.26,27.58,7.66.65V-111l-4.34-.2Zm7.54-15-3-.14c-.1,2-.2,4-.31,6l3.29.16Z" transform="translate(-975.83 154.67)"/><path id="Path_1450" data-name="Path 1450" class="cls-1" d="M994.61-108.18a6.55,6.55,0,0,1-4.61-4.94,5.83,5.83,0,0,1-.13-1.25,1.63,1.63,0,0,1,1.5-1.75h.11a1.68,1.68,0,0,1,1.77,1.57v0a3,3,0,0,0,2.25,3,3,3,0,0,0,3.71-2.12,3.05,3.05,0,0,0-.1-1.89,2.79,2.79,0,0,0-2.53-1.9,7.2,7.2,0,0,1-3.87-1.14,6.47,6.47,0,0,1-1.73-9,6.46,6.46,0,0,1,3-2.41l.59-.22q0-.37,0-.75a1.73,1.73,0,0,1,1.68-1.66,1.63,1.63,0,0,1,1.71,1.54v0c0,.71.31,1,.91,1.23a6.29,6.29,0,0,1,3.81,5.47,1.75,1.75,0,0,1-1.38,2.06l-.17,0c-1,.09-1.76-.61-1.88-1.8a3,3,0,0,0-3.08-2.93,3,3,0,0,0-.78.13,3,3,0,0,0-2.19,3.18,3.13,3.13,0,0,0,2.72,2.74,11.6,11.6,0,0,1,3.51.92,5.92,5.92,0,0,1,3.25,5.8,6.07,6.07,0,0,1-3.91,5.64,1.09,1.09,0,0,0-.78,1.22c.05,1.49-.58,2.29-1.7,2.3s-1.72-.8-1.73-2.28Z" transform="translate(-975.83 154.67)"/></g></svg>