<svg id="Layer_1" data-name="Layer 1" xmlns="http://www.w3.org/2000/svg" viewBox="0 0 98.81 99.32"><defs><style>.cls-1{fill:#e8bc23;}</style></defs><g id="chip"><g id="Group_41" data-name="Group 41"><g id="Group_40" data-name="Group 40"><path id="Path_1001" data-name="Path 1001" class="cls-1" d="M119.85,46.54H96.55V43.23h6.29a1.46,1.46,0,0,0,0-2.91H96.55V37h4.37a6.05,6.05,0,0,0,4.3-1.79l9.51-9.57a4.56,4.56,0,1,0-1.16-7.34l0,0a4.58,4.58,0,0,0-.85,5.26l-9.52,9.57a3.19,3.19,0,0,1-2.26.94H96.55V30.89a7.67,7.67,0,0,0-7.64-7.68H85.72V10.33a4.54,4.54,0,1,0-2.89,0V23.21h-3.3V16.89a1.45,1.45,0,1,0-2.89,0h0v6.32H73.35V-.21A1.45,1.45,0,0,0,71.9-1.66,1.44,1.44,0,0,0,70.45-.22h0V23.21H67.16V16.89a1.44,1.44,0,0,0-1.44-1.45,1.45,1.45,0,0,0-1.45,1.45h0v6.32H61V18.83a6.11,6.11,0,0,0-1.79-4.33L49.67,4.93a4.58,4.58,0,0,0-.85-5.26,4.53,4.53,0,0,0-6.4,0l0,0a4.59,4.59,0,0,0,0,6.46A4.51,4.51,0,0,0,47.63,7l9.52,9.58a3.17,3.17,0,0,1,.93,2.27v4.38H54.89a7.76,7.76,0,0,0-1.91.25,1.45,1.45,0,0,0,.72,2.81,4.79,4.79,0,0,1,1.19-.15h34a4.77,4.77,0,0,1,4.74,4.77V65.1a4.79,4.79,0,0,1-.15,1.19,1.45,1.45,0,1,0,2.76.87.57.57,0,0,0,0-.14,7.77,7.77,0,0,0,.24-1.92V61.89h12.81a4.56,4.56,0,1,0,0-2.91H96.55V55.67h6.29a1.46,1.46,0,0,0,0-2.91H96.55V49.45h23.3a1.46,1.46,0,1,0,0-2.91Zm-4.26-26.15a1.63,1.63,0,0,1,2.32,0h0a1.67,1.67,0,0,1,0,2.34,1.64,1.64,0,0,1-2.32,0h0A1.67,1.67,0,0,1,115.59,20.39ZM46.77,4.07a1.64,1.64,0,0,1-2.32,0h0a1.67,1.67,0,0,1,0-2.34,1.64,1.64,0,0,1,2.33,0h0A1.67,1.67,0,0,1,46.77,4.07Zm37.5,3.59a1.66,1.66,0,0,1,0-3.31A1.66,1.66,0,0,1,85.92,6h0a1.64,1.64,0,0,1-1.64,1.65Zm29.39,51.12A1.66,1.66,0,1,1,112,60.44h0A1.65,1.65,0,0,1,113.66,58.78Z" transform="translate(-22.5 1.67)"/></g></g><g id="Group_43" data-name="Group 43"><g id="Group_42" data-name="Group 42"><path id="Path_1002" data-name="Path 1002" class="cls-1" d="M101.41,89.87A4.52,4.52,0,0,0,96.18,89l-9.52-9.58a3.2,3.2,0,0,1-.94-2.27V72.77h3.2a7.61,7.61,0,0,0,1.9-.24,1.46,1.46,0,0,0-.72-2.82,4.66,4.66,0,0,1-1.18.15h-34a4.76,4.76,0,0,1-4.74-4.76V30.89a4.79,4.79,0,0,1,.15-1.19,1.45,1.45,0,1,0-2.77-.86l0,.13a7.77,7.77,0,0,0-.24,1.92V34.1H34.44a4.56,4.56,0,1,0,0,2.91H47.25v3.31H41a1.46,1.46,0,1,0,0,2.91h6.29v3.31H24a1.46,1.46,0,0,0,0,2.91h23.3v3.31H41a1.46,1.46,0,1,0,0,2.91h6.29V59H42.89a6,6,0,0,0-4.3,1.79l-9.52,9.57a4.56,4.56,0,1,0,1.17,7.34l0,0a4.6,4.6,0,0,0,.86-5.26l9.51-9.57a3.19,3.19,0,0,1,2.26-.94h4.37V65.1a7.66,7.66,0,0,0,7.63,7.68h3.19V85.66a4.54,4.54,0,1,0,2.9,0V72.77h3.29v6.32a1.45,1.45,0,1,0,2.89,0h0V72.77h3.3V96.2a1.45,1.45,0,1,0,2.89,0V72.77h3.29v6.32a1.45,1.45,0,0,0,2.9,0h0V72.77h3.29v4.39a6.07,6.07,0,0,0,1.78,4.33l9.52,9.57A4.59,4.59,0,0,0,95,96.32a4.54,4.54,0,0,0,6.41,0v0A4.58,4.58,0,0,0,101.41,89.87ZM30.14,37.21a1.66,1.66,0,1,1,1.65-1.66h0A1.65,1.65,0,0,1,30.14,37.21ZM28.21,75.6a1.63,1.63,0,0,1-2.32,0h0a1.67,1.67,0,0,1,0-2.34,1.64,1.64,0,0,1,2.32,0h0A1.67,1.67,0,0,1,28.21,75.6ZM61.17,90a1.65,1.65,0,1,1-1.65-1.65A1.64,1.64,0,0,1,61.17,90Zm38.19,4.28a1.64,1.64,0,0,1-2.33,0h0a1.67,1.67,0,0,1,0-2.34,1.64,1.64,0,0,1,2.32,0h0a1.67,1.67,0,0,1,0,2.34Z" transform="translate(-22.5 1.67)"/></g></g><g id="Group_45" data-name="Group 45"><g id="Group_44" data-name="Group 44"><path id="Path_1003" data-name="Path 1003" class="cls-1" d="M87.27,44.11a7,7,0,0,0-5.36-6.6,5.2,5.2,0,0,0,.14-1.17A5.59,5.59,0,0,0,76.25,31a6,6,0,0,0-4.35,1.82A6,6,0,0,0,67.55,31a5.59,5.59,0,0,0-5.8,5.35,5.2,5.2,0,0,0,.14,1.17,7,7,0,0,0-5.36,6.6,6.43,6.43,0,0,0,1.52,4.14,7.25,7.25,0,0,0-1.52,4.41A7.52,7.52,0,0,0,60,58.88h0A6.42,6.42,0,0,0,66.68,65a6.89,6.89,0,0,0,5.22-2.32A6.88,6.88,0,0,0,77.12,65a6.46,6.46,0,0,0,6.65-5.75,6.78,6.78,0,0,0,3.49-5.82,6.52,6.52,0,0,0-2-4.66A6.57,6.57,0,0,0,87.27,44.11Zm-5.12,6a3.88,3.88,0,0,1,2.23,3.38,3.72,3.72,0,0,1-1.28,2.73,6.54,6.54,0,0,0-3.8-3.08,1.46,1.46,0,0,0-.87,2.78,3.3,3.3,0,0,1,2.47,3,3.82,3.82,0,0,1-7.55,0V49.55a3.53,3.53,0,0,1,3.78-3.21,1.46,1.46,0,0,0,0-2.91,7,7,0,0,0-3.78,1.08V42.65a1.45,1.45,0,0,0-2.89,0h0v8.08a6.87,6.87,0,0,0-1.6-.75A1.46,1.46,0,0,0,68,52.76h0a3.3,3.3,0,0,1,2.47,3v3.11a3.83,3.83,0,0,1-7.55,0,3,3,0,0,1,.9-2.08,1.46,1.46,0,0,0,0-2.06,1.45,1.45,0,0,0-2,0h0a6.07,6.07,0,0,0-.89,1.13,4.48,4.48,0,0,1-1.45-3.21,5,5,0,0,1,4.09-4.61,1.45,1.45,0,0,0-.64-2.83,8.81,8.81,0,0,0-2.66,1.08,3.57,3.57,0,0,1-.79-2.2c0-2.18,2.07-4,4.61-4h0a1.4,1.4,0,0,0,.93-.35,1.45,1.45,0,0,0,.3-1.87.21.21,0,0,0,0-.06v0a.61.61,0,0,1-.07-.1h0a2.1,2.1,0,0,1-.53-1.4,2.94,2.94,0,0,1,5.8,0,1.45,1.45,0,0,0,2.9,0h0a2.94,2.94,0,0,1,5.8,0,2.07,2.07,0,0,1-.21.92,8.16,8.16,0,0,0-2.38.6,1.45,1.45,0,0,0,1.13,2.68,5.26,5.26,0,0,1,2-.41h.08c2.54,0,4.6,1.8,4.6,4a3.88,3.88,0,0,1-2.22,3.38,1.45,1.45,0,0,0-.6,2,1.34,1.34,0,0,0,.6.6Z" transform="translate(-22.5 1.67)"/></g></g></g></svg>