<svg id="Layer_1" data-name="Layer 1" xmlns="http://www.w3.org/2000/svg" viewBox="0 0 66.65 66.65"><defs><style>.cls-1{fill:#e8bc23;}</style></defs><g id="Group_89" data-name="Group 89"><path id="Path_1442" data-name="Path 1442" class="cls-1" d="M244.66-89.76c-.57-.5-1.18-1-1.72-1.5-3.44-3.42-6.87-6.86-10.45-10.45a4.25,4.25,0,0,1-.41.63c-1.62,1.63-3.24,3.26-4.88,4.88a1.94,1.94,0,0,1-2.74.29,1.91,1.91,0,0,1-.68-1.11q-5.47-16.38-10.93-32.77a2,2,0,0,1,1.05-2.59,2,2,0,0,1,1.53,0l32.72,10.9a2,2,0,0,1,1.56,2.32A2,2,0,0,1,249-118q-2.4,2.43-4.84,4.83a3.43,3.43,0,0,1-.61.41c3.57,3.58,7,7,10.44,10.45.53.54,1,1.15,1.5,1.73v1a14.84,14.84,0,0,1-1.1,1.41q-3.66,3.72-7.4,7.39a9.12,9.12,0,0,1-1.4,1ZM217.73-127.5c3,8.9,5.87,17.62,8.81,26.44l4.39-4.4a2,2,0,0,1,2.82-.49,2.07,2.07,0,0,1,.49.49L244.73-95l.41.39,5.58-5.53a6.42,6.42,0,0,1-.52-.44L239.71-111a2,2,0,0,1-.4-2.8,2.09,2.09,0,0,1,.42-.42l4-4c.12-.12.23-.27.38-.44Z" transform="translate(-188.81 156.4)"/><path id="Path_1443" data-name="Path 1443" class="cls-1" d="M232.83-147.49a5.42,5.42,0,0,1-.73,1.31q-4.07,4.16-8.21,8.24a2,2,0,0,1-2.76,0,2,2,0,0,1,0-2.76q4.11-4.14,8.27-8.27a1.88,1.88,0,0,1,2.16-.39A2.23,2.23,0,0,1,232.83-147.49Z" transform="translate(-188.81 156.4)"/><path id="Path_1444" data-name="Path 1444" class="cls-1" d="M197.94-149.53a3.82,3.82,0,0,1,1.1.61c2.76,2.7,5.48,5.42,8.19,8.17a2,2,0,0,1,.15,2.76,1.94,1.94,0,0,1-2.75.14.86.86,0,0,1-.14-.13q-4.11-4.08-8.18-8.18a1.88,1.88,0,0,1-.44-2.21A2,2,0,0,1,197.94-149.53Z" transform="translate(-188.81 156.4)"/><path id="Path_1445" data-name="Path 1445" class="cls-1" d="M208-122.64a5.86,5.86,0,0,1-.78,1.35q-4,4.1-8.13,8.14a2,2,0,0,1-2.76.15,2,2,0,0,1-.14-2.77,1.29,1.29,0,0,1,.17-.16q4-4,8.08-8.09a2,2,0,0,1,2.26-.5A2.26,2.26,0,0,1,208-122.64Z" transform="translate(-188.81 156.4)"/><path id="Path_1446" data-name="Path 1446" class="cls-1" d="M216.16-148.52v5.59a2,2,0,0,1-1.75,2.15,2,2,0,0,1-2.15-1.75,2.41,2.41,0,0,1,0-.38q0-5.68,0-11.37A2,2,0,0,1,214-156.4a2,2,0,0,1,2.12,1.79,1.5,1.5,0,0,1,0,.3Z" transform="translate(-188.81 156.4)"/><path id="Path_1447" data-name="Path 1447" class="cls-1" d="M196.64-129.07h-5.59a2,2,0,0,1-2.22-1.68,2,2,0,0,1,1.68-2.21,2.1,2.1,0,0,1,.5,0h11.25a2,2,0,0,1,2.19,1.72,2,2,0,0,1-1.72,2.19,1.67,1.67,0,0,1-.5,0Z" transform="translate(-188.81 156.4)"/></g></svg>