<svg id="Layer_1" data-name="Layer 1" xmlns="http://www.w3.org/2000/svg" viewBox="0 0 57.02 68.39"><defs><style>.cls-1{fill:#e8bc23;}</style></defs><g id="document"><path id="Path_1451" data-name="Path 1451" class="cls-1" d="M1388.54-89.63a1.81,1.81,0,0,1-.71-1.67q0-30.26,0-60.5c0-1.35.33-1.67,1.7-1.67h5.14v-3.1c0-1.05.4-1.45,1.44-1.45q15.68,0,31.32,0a2,2,0,0,1,1.29.53c5.2,5.16,10.36,10.36,15.55,15.52a2,2,0,0,1,.54,1.57q0,19.56,0,39.14v3.34c0,1-.42,1.44-1.47,1.44H1438v1.65c0,1.2,0,2.41,0,3.61a1.56,1.56,0,0,1-.83,1.57Zm8.47-66.1v56.94h45.49v-41h-14.31c-1.25,0-1.59-.35-1.59-1.58v-14.36Zm38.68,59.27h-39.27c-1.44,0-1.75-.31-1.75-1.77v-52.93h-4.52v59.21h45.54Zm5-45.65-11.75-11.74v11.74Z" transform="translate(-1387.81 158.02)"/><path id="Path_1452" data-name="Path 1452" class="cls-1" d="M1423.19-127.26H1410c-1.14,0-1.7-.38-1.69-1.15s.59-1.14,1.72-1.14h26.3c1.07,0,1.61.41,1.6,1.17s-.52,1.12-1.57,1.12Z" transform="translate(-1387.81 158.02)"/><path id="Path_1453" data-name="Path 1453" class="cls-1" d="M1423.19-122.69h13c.22,0,.45,0,.67,0a1.11,1.11,0,0,1,1.1,1.11,1.14,1.14,0,0,1-1.08,1.14,4,4,0,0,1-.6,0h-26.23c-1.14,0-1.7-.38-1.71-1.14s.55-1.15,1.69-1.15Z" transform="translate(-1387.81 158.02)"/><path id="Path_1454" data-name="Path 1454" class="cls-1" d="M1423.19-115.84h13.61a1.12,1.12,0,0,1,1.17,1,1.16,1.16,0,0,1-1.07,1.22,3.25,3.25,0,0,1-.54,0H1410a3.47,3.47,0,0,1-.79-.07,1.05,1.05,0,0,1-.84-1.13,1.07,1.07,0,0,1,1-1,5.93,5.93,0,0,1,.73,0Z" transform="translate(-1387.81 158.02)"/><path id="Path_1455" data-name="Path 1455" class="cls-1" d="M1423.18-134.1H1410a4.41,4.41,0,0,1-.73,0,1,1,0,0,1-.93-1,1,1,0,0,1,.71-1.14,3.32,3.32,0,0,1,1-.12h26.56c.83,0,1.35.48,1.34,1.17s-.51,1.11-1.38,1.11Z" transform="translate(-1387.81 158.02)"/><path id="Path_1456" data-name="Path 1456" class="cls-1" d="M1423.22-109h13.08c.22,0,.45,0,.67,0a1.13,1.13,0,0,1,1,1.23,1.12,1.12,0,0,1-1,1,3,3,0,0,1-.6,0H1410a4,4,0,0,1-.6,0,1.13,1.13,0,0,1-1-1.24,1.12,1.12,0,0,1,1-1c.22,0,.44,0,.66,0Z" transform="translate(-1387.81 158.02)"/><path id="Path_1457" data-name="Path 1457" class="cls-1" d="M1406.11-147.76h3.14c.94,0,1.36.39,1.37,1.32,0,2.16,0,4.31,0,6.47a1.16,1.16,0,0,1-1,1.31,1,1,0,0,1-.35,0h-6.47a1.17,1.17,0,0,1-1.32-1,.86.86,0,0,1,0-.32q0-3.24,0-6.48c0-.87.44-1.29,1.33-1.3C1403.93-147.77,1405-147.76,1406.11-147.76Zm2.2,2.32h-4.49V-141h4.5Z" transform="translate(-1387.81 158.02)"/><path id="Path_1458" data-name="Path 1458" class="cls-1" d="M1403.81-122.71a11.55,11.55,0,0,1,1.32.08,1,1,0,0,1,.91,1,.94.94,0,0,1-.8,1.08h0a18.43,18.43,0,0,1-2.78,0,1,1,0,0,1-.89-1.07,1.09,1.09,0,0,1,1-1.1l.2,0h1.13Z" transform="translate(-1387.81 158.02)"/><path id="Path_1459" data-name="Path 1459" class="cls-1" d="M1403.79-127.29c-.42,0-.85,0-1.26,0a1.05,1.05,0,0,1-1-1,1,1,0,0,1,.91-1.12,20.42,20.42,0,0,1,2.71,0,1,1,0,0,1,.9,1,.37.37,0,0,1,0,.11,1,1,0,0,1-1,1h0A10.59,10.59,0,0,1,1403.79-127.29Z" transform="translate(-1387.81 158.02)"/><path id="Path_1460" data-name="Path 1460" class="cls-1" d="M1403.76-134.11c-.4,0-.8,0-1.2,0a1.09,1.09,0,0,1-1-1,1,1,0,0,1,.87-1.15h0a16.13,16.13,0,0,1,2.78,0,1,1,0,0,1,.88,1.09s0,0,0,.06a1.08,1.08,0,0,1-1.09,1c-.4,0-.8,0-1.2,0Z" transform="translate(-1387.81 158.02)"/><path id="Path_1461" data-name="Path 1461" class="cls-1" d="M1403.81-115.82a10.59,10.59,0,0,1,1.26,0,1,1,0,0,1,1,1,1,1,0,0,1-.71,1.12h-.08a15.61,15.61,0,0,1-2.9,0,1,1,0,0,1-.83-1,.13.13,0,0,0,0-.06,1,1,0,0,1,1-1c.41,0,.84,0,1.26,0Z" transform="translate(-1387.81 158.02)"/><path id="Path_1462" data-name="Path 1462" class="cls-1" d="M1403.77-106.74c-.38,0-.76,0-1.13,0a1.15,1.15,0,0,1-1.13-1.16,1.14,1.14,0,0,1,1.12-1.09c.78,0,1.55,0,2.32,0a1.11,1.11,0,0,1,1.09,1.12,1.12,1.12,0,0,1-1.07,1.13c-.4,0-.8,0-1.2,0Z" transform="translate(-1387.81 158.02)"/></g></svg>