<svg id="Layer_1" data-name="Layer 1" xmlns="http://www.w3.org/2000/svg" xmlns:xlink="http://www.w3.org/1999/xlink" viewBox="0 0 1920 740.29"><defs><style>.cls-1{fill:none;}.cls-2{clip-path:url(#clip-path);}.cls-3{opacity:0.1;}.cls-4{fill:#e8bc23;}.cls-5{fill:#383838;}.cls-6{fill:#f2f2f2;}</style><clipPath id="clip-path" transform="translate(616.67 -50.94)"><rect class="cls-1" x="-616.67" y="27.94" width="1920" height="786"/></clipPath></defs><g class="cls-2"><g id="Mask_Group_10" data-name="Mask Group 10" class="cls-3"><g id="Group_326" data-name="Group 326"><path id="Path_3585" data-name="Path 3585" class="cls-4" d="M250.3,418l70,121.22,116-148.1Zm2.88,2.16L330,457.4,320,535.83Zm68.23,115.37,10-78.13,100.24-62.64Zm110.15-142.3-100.83,63-77-37.29Z" transform="translate(616.67 -50.94)"/><rect id="Rectangle_201" data-name="Rectangle 201" class="cls-5" x="410.38" width="459.63" height="67.63"/><path id="Path_3586" data-name="Path 3586" class="cls-4" d="M-381,338.5a1.33,1.33,0,0,0-1.33-1.32h-80.21a1.43,1.43,0,0,0-.5.09,1.6,1.6,0,0,0-.44.29l-40.1,40.11a1.34,1.34,0,0,0-.38.93v80.21a1.43,1.43,0,0,0,.09.5,1.32,1.32,0,0,0,.73.72,1.44,1.44,0,0,0,.5.1h80.21a1.34,1.34,0,0,0,.93-.38l40.11-40.11a1.39,1.39,0,0,0,.28-.43,1.18,1.18,0,0,0,.1-.5Zm-2.65,78.89h-77.56V339.83h77.56Zm-56.87,40.1L-403.11,420H-394l-37.46,37.45Zm-10.06,0L-413.16,420H-404l-37.46,37.45Zm-10.05,0L-423.22,420h9.12l-37.47,37.45Zm-10.06,0L-433.27,420h9.11l-37.46,37.45Zm-10.05,0L-443.33,420h9.11l-37.46,37.45Zm-10,0L-453.38,420h9.09l-37.47,37.45Zm-8.65,0L-462,420h7.71l-37.46,37.45Zm-1.87-60L-463.91,360v9.14l-37.45,37.46Zm0,10.09,37.45-37.46v9.14l-37.45,37.46Zm0,10.08,37.45-37.46v9.14l-37.45,37.46Zm0,10.08,37.45-37.46v9.14l-37.45,37.46Zm0,10.09,37.45-37.52v9.14l-37.45,37.46Zm37.45-78.73-37.45,37.46V387.4L-463.91,350Zm-37.45,88.75,37.45-37.46v7.74l-37.45,37.46Zm37.45-106.18V349l-37.45,37.46v-7.3ZM-423,457.44h-7.49L-393,420h7.48Z" transform="translate(616.67 -50.94)"/><path id="Path_3587" data-name="Path 3587" class="cls-4" d="M-464.23,104.61a4.2,4.2,0,0,0,4.2,4.2,4.2,4.2,0,0,0,4.2-4.2,4.2,4.2,0,0,0-4.2-4.2A4.2,4.2,0,0,0-464.23,104.61Z" transform="translate(616.67 -50.94)"/><path id="Path_3588" data-name="Path 3588" class="cls-4" d="M-418,104.61a4.2,4.2,0,0,0,4.2,4.2,4.2,4.2,0,0,0,4.2-4.2,4.2,4.2,0,0,0-4.2-4.2A4.2,4.2,0,0,0-418,104.61Z" transform="translate(616.67 -50.94)"/><path id="Path_3589" data-name="Path 3589" class="cls-4" d="M-371.66,104.61a4.2,4.2,0,0,0,4.2,4.2,4.2,4.2,0,0,0,4.2-4.2,4.2,4.2,0,0,0-4.2-4.2A4.2,4.2,0,0,0-371.66,104.61Z" transform="translate(616.67 -50.94)"/><path id="Path_3590" data-name="Path 3590" class="cls-4" d="M-325.56,104.61a4.2,4.2,0,0,0,4.2,4.2,4.2,4.2,0,0,0,4.2-4.2,4.2,4.2,0,0,0-4.2-4.2A4.2,4.2,0,0,0-325.56,104.61Z" transform="translate(616.67 -50.94)"/><path id="Path_3591" data-name="Path 3591" class="cls-4" d="M-279.32,104.61a4.2,4.2,0,0,0,4.17,4.2,4.2,4.2,0,0,0,4.2-4.2,4.2,4.2,0,0,0-4.2-4.2A4.19,4.19,0,0,0-279.32,104.61Z" transform="translate(616.67 -50.94)"/><path id="Path_3592" data-name="Path 3592" class="cls-4" d="M-233.11,104.61a4.21,4.21,0,0,0,4.2,4.2,4.2,4.2,0,0,0,4.2-4.2,4.2,4.2,0,0,0-4.2-4.2,4.2,4.2,0,0,0-4.2,4.2Z" transform="translate(616.67 -50.94)"/><path id="Path_3593" data-name="Path 3593" class="cls-4" d="M-186.89,104.61a4.21,4.21,0,0,0,4.19,4.2,4.2,4.2,0,0,0,4.2-4.2,4.19,4.19,0,0,0-4.19-4.2,4.2,4.2,0,0,0-4.2,4.2Z" transform="translate(616.67 -50.94)"/><path id="Path_3594" data-name="Path 3594" class="cls-4" d="M-140.65,104.61a4.21,4.21,0,0,0,4.19,4.2,4.2,4.2,0,0,0,4.2-4.2,4.2,4.2,0,0,0-4.2-4.2,4.2,4.2,0,0,0-4.2,4.2Z" transform="translate(616.67 -50.94)"/><path id="Path_3595" data-name="Path 3595" class="cls-4" d="M-94.44,104.61a4.21,4.21,0,0,0,4.2,4.2,4.2,4.2,0,0,0,4.2-4.2,4.2,4.2,0,0,0-4.2-4.2,4.2,4.2,0,0,0-4.2,4.2Z" transform="translate(616.67 -50.94)"/><path id="Path_3596" data-name="Path 3596" class="cls-4" d="M-48.2,104.61a4.2,4.2,0,0,0,4.2,4.2,4.21,4.21,0,0,0,4.18-4.2,4.2,4.2,0,0,0-4.18-4.2A4.2,4.2,0,0,0-48.2,104.61Z" transform="translate(616.67 -50.94)"/><path id="Path_3597" data-name="Path 3597" class="cls-4" d="M-2,104.61a4.2,4.2,0,1,0,4.19-4.2A4.21,4.21,0,0,0-2,104.61Z" transform="translate(616.67 -50.94)"/><path id="Path_3598" data-name="Path 3598" class="cls-4" d="M44.24,104.61a4.2,4.2,0,1,0,4.2-4.2,4.2,4.2,0,0,0-4.2,4.2Z" transform="translate(616.67 -50.94)"/><path id="Path_3599" data-name="Path 3599" class="cls-4" d="M90.48,104.61a4.2,4.2,0,1,0,4.2-4.2A4.2,4.2,0,0,0,90.48,104.61Z" transform="translate(616.67 -50.94)"/><path id="Path_3600" data-name="Path 3600" class="cls-4" d="M-464.23,144a4.2,4.2,0,0,0,4.2,4.2,4.2,4.2,0,0,0,4.2-4.2,4.2,4.2,0,0,0-4.2-4.2A4.2,4.2,0,0,0-464.23,144Z" transform="translate(616.67 -50.94)"/><path id="Path_3601" data-name="Path 3601" class="cls-4" d="M-418,144a4.2,4.2,0,0,0,4.2,4.2,4.2,4.2,0,0,0,4.2-4.2,4.2,4.2,0,0,0-4.2-4.2A4.2,4.2,0,0,0-418,144Z" transform="translate(616.67 -50.94)"/><path id="Path_3602" data-name="Path 3602" class="cls-4" d="M-371.66,144a4.2,4.2,0,0,0,4.2,4.2,4.2,4.2,0,0,0,4.2-4.2,4.2,4.2,0,0,0-4.2-4.2A4.2,4.2,0,0,0-371.66,144Z" transform="translate(616.67 -50.94)"/><path id="Path_3603" data-name="Path 3603" class="cls-4" d="M-325.56,144a4.2,4.2,0,0,0,4.2,4.2,4.2,4.2,0,0,0,4.2-4.2,4.2,4.2,0,0,0-4.2-4.2A4.2,4.2,0,0,0-325.56,144Z" transform="translate(616.67 -50.94)"/><path id="Path_3604" data-name="Path 3604" class="cls-4" d="M-279.32,144a4.2,4.2,0,0,0,4.17,4.2,4.2,4.2,0,0,0,4.2-4.2,4.2,4.2,0,0,0-4.2-4.2A4.2,4.2,0,0,0-279.32,144Z" transform="translate(616.67 -50.94)"/><path id="Path_3605" data-name="Path 3605" class="cls-4" d="M-233.11,144a4.2,4.2,0,0,0,4.2,4.2,4.2,4.2,0,0,0,4.2-4.2,4.2,4.2,0,0,0-4.2-4.2,4.21,4.21,0,0,0-4.2,4.2Z" transform="translate(616.67 -50.94)"/><path id="Path_3606" data-name="Path 3606" class="cls-4" d="M-186.89,144a4.2,4.2,0,0,0,4.19,4.2,4.2,4.2,0,0,0,4.2-4.2,4.2,4.2,0,0,0-4.19-4.2,4.21,4.21,0,0,0-4.2,4.2Z" transform="translate(616.67 -50.94)"/><path id="Path_3607" data-name="Path 3607" class="cls-4" d="M-140.65,144a4.2,4.2,0,0,0,4.19,4.2,4.2,4.2,0,0,0,4.2-4.2,4.2,4.2,0,0,0-4.2-4.2,4.21,4.21,0,0,0-4.2,4.2Z" transform="translate(616.67 -50.94)"/><path id="Path_3608" data-name="Path 3608" class="cls-4" d="M-94.44,144a4.2,4.2,0,0,0,4.2,4.2A4.2,4.2,0,0,0-86,144a4.21,4.21,0,0,0-4.2-4.2,4.21,4.21,0,0,0-4.2,4.2Z" transform="translate(616.67 -50.94)"/><path id="Path_3609" data-name="Path 3609" class="cls-4" d="M-48.2,144a4.2,4.2,0,0,0,4.2,4.2,4.21,4.21,0,0,0,4.18-4.2,4.21,4.21,0,0,0-4.18-4.2A4.2,4.2,0,0,0-48.2,144Z" transform="translate(616.67 -50.94)"/><path id="Path_3610" data-name="Path 3610" class="cls-4" d="M-2,144a4.2,4.2,0,1,0,4.19-4.2A4.2,4.2,0,0,0-2,144Z" transform="translate(616.67 -50.94)"/><path id="Path_3611" data-name="Path 3611" class="cls-4" d="M44.24,144a4.2,4.2,0,1,0,4.2-4.2,4.19,4.19,0,0,0-4.2,4.2Z" transform="translate(616.67 -50.94)"/><path id="Path_3612" data-name="Path 3612" class="cls-4" d="M90.48,144a4.2,4.2,0,1,0,4.2-4.2A4.2,4.2,0,0,0,90.48,144Z" transform="translate(616.67 -50.94)"/><path id="Path_3613" data-name="Path 3613" class="cls-4" d="M-464.23,183.38a4.2,4.2,0,0,0,4.2,4.2,4.2,4.2,0,0,0,4.2-4.2,4.2,4.2,0,0,0-4.2-4.2A4.2,4.2,0,0,0-464.23,183.38Z" transform="translate(616.67 -50.94)"/><path id="Path_3614" data-name="Path 3614" class="cls-4" d="M-418,183.38a4.2,4.2,0,0,0,4.2,4.2,4.2,4.2,0,0,0,4.2-4.2,4.2,4.2,0,0,0-4.2-4.2A4.2,4.2,0,0,0-418,183.38Z" transform="translate(616.67 -50.94)"/><path id="Path_3615" data-name="Path 3615" class="cls-4" d="M-371.66,183.38a4.2,4.2,0,0,0,4.2,4.2,4.2,4.2,0,0,0,4.2-4.2,4.2,4.2,0,0,0-4.2-4.2A4.2,4.2,0,0,0-371.66,183.38Z" transform="translate(616.67 -50.94)"/><path id="Path_3616" data-name="Path 3616" class="cls-4" d="M-325.56,183.38a4.2,4.2,0,0,0,4.2,4.2,4.2,4.2,0,0,0,4.2-4.2,4.2,4.2,0,0,0-4.2-4.2A4.2,4.2,0,0,0-325.56,183.38Z" transform="translate(616.67 -50.94)"/><path id="Path_3617" data-name="Path 3617" class="cls-4" d="M-279.32,183.38a4.19,4.19,0,0,0,4.17,4.2,4.2,4.2,0,0,0,4.2-4.2,4.2,4.2,0,0,0-4.2-4.2A4.2,4.2,0,0,0-279.32,183.38Z" transform="translate(616.67 -50.94)"/><path id="Path_3618" data-name="Path 3618" class="cls-4" d="M-233.11,183.38a4.2,4.2,0,0,0,4.2,4.2,4.2,4.2,0,0,0,4.2-4.2,4.19,4.19,0,0,0-4.2-4.19,4.2,4.2,0,0,0-4.2,4.2Z" transform="translate(616.67 -50.94)"/><path id="Path_3619" data-name="Path 3619" class="cls-4" d="M-186.89,183.38a4.2,4.2,0,0,0,4.19,4.2,4.2,4.2,0,0,0,4.2-4.2,4.19,4.19,0,0,0-4.19-4.19,4.2,4.2,0,0,0-4.2,4.2Z" transform="translate(616.67 -50.94)"/><path id="Path_3620" data-name="Path 3620" class="cls-4" d="M-140.65,183.38a4.2,4.2,0,0,0,4.19,4.2,4.2,4.2,0,0,0,4.2-4.2,4.19,4.19,0,0,0-4.2-4.19,4.2,4.2,0,0,0-4.2,4.2Z" transform="translate(616.67 -50.94)"/><path id="Path_3621" data-name="Path 3621" class="cls-4" d="M-94.44,183.38a4.2,4.2,0,0,0,4.2,4.2,4.2,4.2,0,0,0,4.2-4.2,4.2,4.2,0,0,0-4.2-4.19,4.2,4.2,0,0,0-4.2,4.2Z" transform="translate(616.67 -50.94)"/><path id="Path_3622" data-name="Path 3622" class="cls-4" d="M-48.2,183.38a4.2,4.2,0,0,0,4.2,4.2,4.2,4.2,0,0,0,4.18-4.2,4.21,4.21,0,0,0-4.18-4.2A4.2,4.2,0,0,0-48.2,183.38Z" transform="translate(616.67 -50.94)"/><path id="Path_3623" data-name="Path 3623" class="cls-4" d="M-2,183.38a4.2,4.2,0,1,0,4.19-4.2A4.2,4.2,0,0,0-2,183.38Z" transform="translate(616.67 -50.94)"/><path id="Path_3624" data-name="Path 3624" class="cls-4" d="M44.24,183.38a4.2,4.2,0,1,0,4.2-4.19,4.19,4.19,0,0,0-4.2,4.19Z" transform="translate(616.67 -50.94)"/><path id="Path_3625" data-name="Path 3625" class="cls-4" d="M90.48,183.38a4.2,4.2,0,1,0,4.2-4.2A4.2,4.2,0,0,0,90.48,183.38Z" transform="translate(616.67 -50.94)"/><path id="Path_3626" data-name="Path 3626" class="cls-4" d="M-464.23,222.76A4.2,4.2,0,0,0-460,227a4.2,4.2,0,0,0,4.2-4.2,4.2,4.2,0,0,0-4.2-4.2A4.2,4.2,0,0,0-464.23,222.76Z" transform="translate(616.67 -50.94)"/><path id="Path_3627" data-name="Path 3627" class="cls-4" d="M-418,222.76a4.2,4.2,0,0,0,4.2,4.2,4.2,4.2,0,0,0,4.2-4.2,4.2,4.2,0,0,0-4.2-4.2A4.2,4.2,0,0,0-418,222.76Z" transform="translate(616.67 -50.94)"/><path id="Path_3628" data-name="Path 3628" class="cls-4" d="M-371.66,222.76a4.2,4.2,0,0,0,4.2,4.2,4.2,4.2,0,0,0,4.2-4.2,4.2,4.2,0,0,0-4.2-4.2A4.2,4.2,0,0,0-371.66,222.76Z" transform="translate(616.67 -50.94)"/><path id="Path_3629" data-name="Path 3629" class="cls-4" d="M-325.56,222.76a4.2,4.2,0,0,0,4.2,4.2,4.2,4.2,0,0,0,4.2-4.2,4.2,4.2,0,0,0-4.2-4.2A4.2,4.2,0,0,0-325.56,222.76Z" transform="translate(616.67 -50.94)"/><path id="Path_3630" data-name="Path 3630" class="cls-4" d="M-279.32,222.76a4.19,4.19,0,0,0,4.17,4.2,4.2,4.2,0,0,0,4.2-4.2,4.2,4.2,0,0,0-4.2-4.2A4.2,4.2,0,0,0-279.32,222.76Z" transform="translate(616.67 -50.94)"/><path id="Path_3631" data-name="Path 3631" class="cls-4" d="M-233.11,222.76a4.2,4.2,0,0,0,4.2,4.2,4.2,4.2,0,0,0,4.2-4.2,4.2,4.2,0,0,0-4.2-4.19,4.2,4.2,0,0,0-4.2,4.2Z" transform="translate(616.67 -50.94)"/><path id="Path_3632" data-name="Path 3632" class="cls-4" d="M-186.89,222.76a4.2,4.2,0,0,0,4.19,4.2,4.2,4.2,0,0,0,4.2-4.2,4.19,4.19,0,0,0-4.19-4.19A4.19,4.19,0,0,0-186.89,222.76Z" transform="translate(616.67 -50.94)"/><path id="Path_3633" data-name="Path 3633" class="cls-4" d="M-140.65,222.76a4.2,4.2,0,0,0,4.19,4.2,4.2,4.2,0,0,0,4.2-4.2,4.2,4.2,0,0,0-4.19-4.19,4.2,4.2,0,0,0-4.2,4.2Z" transform="translate(616.67 -50.94)"/><path id="Path_3634" data-name="Path 3634" class="cls-4" d="M-94.44,222.76a4.2,4.2,0,0,0,4.2,4.2,4.2,4.2,0,0,0,4.2-4.2,4.2,4.2,0,0,0-4.2-4.19A4.2,4.2,0,0,0-94.44,222.76Z" transform="translate(616.67 -50.94)"/><path id="Path_3635" data-name="Path 3635" class="cls-4" d="M-48.2,222.76A4.2,4.2,0,0,0-44,227a4.2,4.2,0,0,0,4.18-4.2,4.21,4.21,0,0,0-4.18-4.2A4.2,4.2,0,0,0-48.2,222.76Z" transform="translate(616.67 -50.94)"/><path id="Path_3636" data-name="Path 3636" class="cls-4" d="M-2,222.76a4.2,4.2,0,1,0,4.2-4.2A4.2,4.2,0,0,0-2,222.76Z" transform="translate(616.67 -50.94)"/><path id="Path_3637" data-name="Path 3637" class="cls-4" d="M44.24,222.76a4.2,4.2,0,1,0,4.2-4.19,4.19,4.19,0,0,0-4.2,4.19Z" transform="translate(616.67 -50.94)"/><path id="Path_3638" data-name="Path 3638" class="cls-4" d="M90.48,222.76a4.2,4.2,0,1,0,4.2-4.2A4.2,4.2,0,0,0,90.48,222.76Z" transform="translate(616.67 -50.94)"/><path id="Path_3639" data-name="Path 3639" class="cls-4" d="M-464.23,262.14a4.2,4.2,0,0,0,4.2,4.2,4.2,4.2,0,0,0,4.2-4.2,4.2,4.2,0,0,0-4.2-4.2A4.2,4.2,0,0,0-464.23,262.14Z" transform="translate(616.67 -50.94)"/><path id="Path_3640" data-name="Path 3640" class="cls-4" d="M-418,262.14a4.2,4.2,0,0,0,4.2,4.2,4.2,4.2,0,0,0,4.2-4.2,4.2,4.2,0,0,0-4.2-4.2A4.2,4.2,0,0,0-418,262.14Z" transform="translate(616.67 -50.94)"/><path id="Path_3641" data-name="Path 3641" class="cls-4" d="M-371.66,262.14a4.2,4.2,0,0,0,4.2,4.2,4.2,4.2,0,0,0,4.2-4.2,4.2,4.2,0,0,0-4.2-4.2A4.2,4.2,0,0,0-371.66,262.14Z" transform="translate(616.67 -50.94)"/><circle id="Ellipse_156" data-name="Ellipse 156" class="cls-4" cx="295.31" cy="211.19" r="4.2"/><circle id="Ellipse_157" data-name="Ellipse 157" class="cls-4" cx="341.54" cy="211.19" r="4.2"/><circle id="Ellipse_158" data-name="Ellipse 158" class="cls-4" cx="387.76" cy="211.19" r="4.2"/><path id="Path_3642" data-name="Path 3642" class="cls-4" d="M-186.89,262.14a4.2,4.2,0,0,0,4.19,4.2,4.2,4.2,0,0,0,4.2-4.2,4.2,4.2,0,0,0-4.19-4.2A4.2,4.2,0,0,0-186.89,262.14Z" transform="translate(616.67 -50.94)"/><path id="Path_3643" data-name="Path 3643" class="cls-4" d="M-140.65,262.14a4.2,4.2,0,0,0,4.19,4.2,4.2,4.2,0,0,0,4.2-4.2,4.2,4.2,0,0,0-4.19-4.2,4.2,4.2,0,0,0-4.2,4.2Z" transform="translate(616.67 -50.94)"/><path id="Path_3644" data-name="Path 3644" class="cls-4" d="M-94.44,262.14a4.2,4.2,0,0,0,4.2,4.2,4.2,4.2,0,0,0,4.2-4.2,4.21,4.21,0,0,0-4.2-4.2A4.21,4.21,0,0,0-94.44,262.14Z" transform="translate(616.67 -50.94)"/><path id="Path_3645" data-name="Path 3645" class="cls-4" d="M-48.2,262.14a4.2,4.2,0,0,0,4.2,4.2,4.21,4.21,0,0,0,4.18-4.2,4.2,4.2,0,0,0-4.18-4.2A4.2,4.2,0,0,0-48.2,262.14Z" transform="translate(616.67 -50.94)"/><path id="Path_3646" data-name="Path 3646" class="cls-4" d="M-2,262.14a4.2,4.2,0,1,0,4.2-4.2A4.2,4.2,0,0,0-2,262.14Z" transform="translate(616.67 -50.94)"/><path id="Path_3647" data-name="Path 3647" class="cls-4" d="M44.24,262.14a4.2,4.2,0,1,0,4.2-4.2,4.19,4.19,0,0,0-4.2,4.2Z" transform="translate(616.67 -50.94)"/><path id="Path_3648" data-name="Path 3648" class="cls-4" d="M90.48,262.14a4.2,4.2,0,1,0,4.2-4.2A4.2,4.2,0,0,0,90.48,262.14Z" transform="translate(616.67 -50.94)"/><path id="Path_3649" data-name="Path 3649" class="cls-4" d="M-464.23,301.54a4.2,4.2,0,0,0,4.2,4.2,4.2,4.2,0,0,0,4.2-4.2,4.2,4.2,0,0,0-4.2-4.2A4.2,4.2,0,0,0-464.23,301.54Z" transform="translate(616.67 -50.94)"/><path id="Path_3650" data-name="Path 3650" class="cls-4" d="M-418,301.54a4.2,4.2,0,0,0,4.2,4.2,4.2,4.2,0,0,0,4.2-4.2,4.2,4.2,0,0,0-4.2-4.2A4.2,4.2,0,0,0-418,301.54Z" transform="translate(616.67 -50.94)"/><path id="Path_3651" data-name="Path 3651" class="cls-4" d="M-371.66,301.54a4.2,4.2,0,0,0,4.2,4.2,4.2,4.2,0,0,0,4.2-4.2,4.2,4.2,0,0,0-4.2-4.2A4.2,4.2,0,0,0-371.66,301.54Z" transform="translate(616.67 -50.94)"/><path id="Path_3652" data-name="Path 3652" class="cls-4" d="M-325.56,301.54a4.2,4.2,0,0,0,4.2,4.2,4.2,4.2,0,0,0,4.2-4.2,4.2,4.2,0,0,0-4.2-4.2A4.2,4.2,0,0,0-325.56,301.54Z" transform="translate(616.67 -50.94)"/><path id="Path_3653" data-name="Path 3653" class="cls-4" d="M-279.32,301.54a4.19,4.19,0,0,0,4.17,4.2,4.2,4.2,0,0,0,4.2-4.2,4.2,4.2,0,0,0-4.2-4.2A4.2,4.2,0,0,0-279.32,301.54Z" transform="translate(616.67 -50.94)"/><path id="Path_3654" data-name="Path 3654" class="cls-4" d="M-233.11,301.54a4.2,4.2,0,0,0,4.2,4.2,4.2,4.2,0,0,0,4.2-4.2,4.2,4.2,0,0,0-4.2-4.19,4.2,4.2,0,0,0-4.2,4.2Z" transform="translate(616.67 -50.94)"/><path id="Path_3655" data-name="Path 3655" class="cls-4" d="M-186.89,301.54a4.2,4.2,0,0,0,4.19,4.2,4.2,4.2,0,0,0,4.2-4.2,4.19,4.19,0,0,0-4.19-4.19A4.19,4.19,0,0,0-186.89,301.54Z" transform="translate(616.67 -50.94)"/><path id="Path_3656" data-name="Path 3656" class="cls-4" d="M-140.65,301.54a4.2,4.2,0,0,0,4.19,4.2,4.2,4.2,0,0,0,4.2-4.2,4.2,4.2,0,0,0-4.19-4.19,4.2,4.2,0,0,0-4.2,4.2Z" transform="translate(616.67 -50.94)"/><path id="Path_3657" data-name="Path 3657" class="cls-4" d="M-94.44,301.54a4.2,4.2,0,0,0,4.2,4.2,4.2,4.2,0,0,0,4.2-4.2,4.2,4.2,0,0,0-4.2-4.19A4.2,4.2,0,0,0-94.44,301.54Z" transform="translate(616.67 -50.94)"/><path id="Path_3658" data-name="Path 3658" class="cls-4" d="M-48.2,301.54a4.2,4.2,0,0,0,4.2,4.2,4.2,4.2,0,0,0,4.18-4.2,4.21,4.21,0,0,0-4.18-4.2A4.2,4.2,0,0,0-48.2,301.54Z" transform="translate(616.67 -50.94)"/><path id="Path_3659" data-name="Path 3659" class="cls-4" d="M-2,301.54a4.2,4.2,0,1,0,4.2-4.2A4.2,4.2,0,0,0-2,301.54Z" transform="translate(616.67 -50.94)"/><path id="Path_3660" data-name="Path 3660" class="cls-4" d="M44.24,301.54a4.2,4.2,0,1,0,4.2-4.19,4.19,4.19,0,0,0-4.2,4.19Z" transform="translate(616.67 -50.94)"/><path id="Path_3661" data-name="Path 3661" class="cls-4" d="M90.48,301.54a4.2,4.2,0,1,0,4.2-4.2A4.2,4.2,0,0,0,90.48,301.54Z" transform="translate(616.67 -50.94)"/><path id="Path_3662" data-name="Path 3662" class="cls-4" d="M-372.42,731.21a1.14,1.14,0,0,0-1.16,1.11,1.15,1.15,0,0,0,1.12,1.16,1.14,1.14,0,0,0,1.15-1.11s0,0,0,0A1.13,1.13,0,0,0-372.42,731.21Z" transform="translate(616.67 -50.94)"/><path id="Path_3663" data-name="Path 3663" class="cls-4" d="M-372.42,751.79a1.12,1.12,0,0,0-1.12,1.11,1.11,1.11,0,0,0,1.11,1.11,1.1,1.1,0,0,0,1.12-1.1h0a1.11,1.11,0,0,0-1.11-1.11Z" transform="translate(616.67 -50.94)"/><path id="Path_3664" data-name="Path 3664" class="cls-4" d="M-354.9,731.21a1.12,1.12,0,0,0-1.15,1.11,1.13,1.13,0,0,0,1.11,1.16,1.15,1.15,0,0,0,1.16-1.12v0a1.11,1.11,0,0,0-1.11-1.11Z" transform="translate(616.67 -50.94)"/><path id="Path_3665" data-name="Path 3665" class="cls-4" d="M-354.89,751.79A1.12,1.12,0,0,0-356,752.9a1.11,1.11,0,0,0,1.12,1.11,1.11,1.11,0,0,0,1.11-1.11,1.09,1.09,0,0,0-1.07-1.11Z" transform="translate(616.67 -50.94)"/><path id="Path_3666" data-name="Path 3666" class="cls-4" d="M-337.37,731.21a1.12,1.12,0,0,0-1.16,1.11,1.14,1.14,0,0,0,1.11,1.16,1.14,1.14,0,0,0,1.16-1.12v0a1.11,1.11,0,0,0-1.11-1.11Z" transform="translate(616.67 -50.94)"/><path id="Path_3667" data-name="Path 3667" class="cls-4" d="M-337.37,751.79a1.12,1.12,0,0,0-1.12,1.11,1.11,1.11,0,0,0,1.12,1.11,1.11,1.11,0,0,0,1.11-1.11,1.09,1.09,0,0,0-1.07-1.11Z" transform="translate(616.67 -50.94)"/><path id="Path_3668" data-name="Path 3668" class="cls-4" d="M-319.85,731.21a1.13,1.13,0,0,0-1.14,1.13,1.14,1.14,0,0,0,1.14,1.14,1.13,1.13,0,0,0,1.13-1.14v0A1.12,1.12,0,0,0-319.85,731.21Z" transform="translate(616.67 -50.94)"/><path id="Path_3669" data-name="Path 3669" class="cls-4" d="M-319.85,751.79a1.11,1.11,0,0,0-1.09,1.13,1.1,1.1,0,0,0,1.13,1.09,1.1,1.1,0,0,0,1.09-1.13,1.07,1.07,0,0,0-.33-.77A1.09,1.09,0,0,0-319.85,751.79Z" transform="translate(616.67 -50.94)"/><path id="Path_3670" data-name="Path 3670" class="cls-4" d="M-302.3,731.21a1.12,1.12,0,0,0-1.16,1.11,1.13,1.13,0,0,0,1.11,1.16,1.14,1.14,0,0,0,1.16-1.11v0A1.13,1.13,0,0,0-302.3,731.21Z" transform="translate(616.67 -50.94)"/><path id="Path_3671" data-name="Path 3671" class="cls-4" d="M-302.31,751.79a1.11,1.11,0,0,0-1.11,1.11,1.1,1.1,0,0,0,1.11,1.11,1.11,1.11,0,0,0,1.12-1.11,1.11,1.11,0,0,0-1.11-1.11Z" transform="translate(616.67 -50.94)"/><path id="Path_3672" data-name="Path 3672" class="cls-4" d="M-460.08,504.85a1.15,1.15,0,0,0-1.11,1.12,1.13,1.13,0,0,0,1.12,1.13,1.13,1.13,0,0,0,1.13-1.13A1.14,1.14,0,0,0-460.08,504.85Z" transform="translate(616.67 -50.94)"/><path id="Path_3673" data-name="Path 3673" class="cls-4" d="M-460.08,525.51a1.11,1.11,0,0,0-1.11,1.11h0a1.11,1.11,0,0,0,1.11,1.11,1.09,1.09,0,0,0,.8-.32,1.1,1.1,0,0,0,.34-.8,1.1,1.1,0,0,0-.34-.8,1.12,1.12,0,0,0-.8-.31Z" transform="translate(616.67 -50.94)"/><path id="Path_3674" data-name="Path 3674" class="cls-4" d="M-460.08,546.07a1.13,1.13,0,0,0-1.11,1.11,1.13,1.13,0,0,0,1.12,1.13,1.13,1.13,0,0,0,1.13-1.13A1.13,1.13,0,0,0-460.08,546.07Z" transform="translate(616.67 -50.94)"/><path id="Path_3675" data-name="Path 3675" class="cls-4" d="M-460.08,566.65a1.11,1.11,0,0,0-1.11,1.11h0a1.11,1.11,0,0,0,1.11,1.11h0a1.09,1.09,0,0,0,.8-.32,1.09,1.09,0,0,0,.34-.8,1.12,1.12,0,0,0-.34-.8,1.12,1.12,0,0,0-.8-.31Z" transform="translate(616.67 -50.94)"/><path id="Path_3676" data-name="Path 3676" class="cls-4" d="M-460.07,587.2a1.14,1.14,0,0,0-1,1.09,1.14,1.14,0,0,0,1.11,1.12,1.13,1.13,0,0,0,1.13-1.12,1.11,1.11,0,0,0-.38-.8,1.15,1.15,0,0,0-.85-.29Z" transform="translate(616.67 -50.94)"/><path id="Path_3677" data-name="Path 3677" class="cls-4" d="M-460.07,607.79a1.11,1.11,0,0,0-1.09,1.13A1.11,1.11,0,0,0-460,610a1.12,1.12,0,0,0,1.09-1.14,1.17,1.17,0,0,0-.33-.77A1.15,1.15,0,0,0-460.07,607.79Z" transform="translate(616.67 -50.94)"/><path id="Path_3678" data-name="Path 3678" class="cls-4" d="M-460.08,628.34a1.14,1.14,0,0,0-1.13,1.14,1.14,1.14,0,0,0,1.13,1.14,1.14,1.14,0,0,0,1.14-1.14h0A1.14,1.14,0,0,0-460.08,628.34Z" transform="translate(616.67 -50.94)"/><path id="Path_3679" data-name="Path 3679" class="cls-4" d="M-460.08,648.93a1.14,1.14,0,0,0-1.13,1.13,1.14,1.14,0,0,0,1.14,1.14,1.14,1.14,0,0,0,1.13-1.14v0A1.13,1.13,0,0,0-460.08,648.93Z" transform="translate(616.67 -50.94)"/><path id="Path_3680" data-name="Path 3680" class="cls-4" d="M-460.08,669.42a1.13,1.13,0,0,0-1.13,1.13,1.14,1.14,0,0,0,1.13,1.14,1.14,1.14,0,0,0,1.14-1.14h0A1.13,1.13,0,0,0-460.08,669.42Z" transform="translate(616.67 -50.94)"/><path id="Path_3681" data-name="Path 3681" class="cls-4" d="M-460.08,690.07a1.14,1.14,0,0,0-1.13,1.13,1.14,1.14,0,0,0,1.14,1.14,1.14,1.14,0,0,0,1.13-1.14v0A1.13,1.13,0,0,0-460.08,690.07Z" transform="translate(616.67 -50.94)"/><path id="Path_3682" data-name="Path 3682" class="cls-4" d="M-460.07,710.65a1.11,1.11,0,0,0-1.09,1.13,1.11,1.11,0,0,0,1.13,1.09,1.11,1.11,0,0,0,1.09-1.13,1.2,1.2,0,0,0-.33-.78A1.15,1.15,0,0,0-460.07,710.65Z" transform="translate(616.67 -50.94)"/><path id="Path_3683" data-name="Path 3683" class="cls-4" d="M-460.08,731.21a1.13,1.13,0,0,0-1.13,1.13,1.14,1.14,0,0,0,1.14,1.14,1.14,1.14,0,0,0,1.13-1.14v0A1.13,1.13,0,0,0-460.08,731.21Z" transform="translate(616.67 -50.94)"/><path id="Path_3684" data-name="Path 3684" class="cls-4" d="M-460.07,751.79a1.11,1.11,0,0,0-1.09,1.13A1.11,1.11,0,0,0-460,754a1.11,1.11,0,0,0,1.09-1.13,1.15,1.15,0,0,0-.33-.77A1.12,1.12,0,0,0-460.07,751.79Z" transform="translate(616.67 -50.94)"/><circle id="Ellipse_159" data-name="Ellipse 159" class="cls-4" cx="174.14" cy="455.09" r="1.11"/><path id="Path_3685" data-name="Path 3685" class="cls-4" d="M-442.55,525.51a1.08,1.08,0,0,0-.8.31,1.1,1.1,0,0,0-.34.8,1.1,1.1,0,0,0,.34.8,1.09,1.09,0,0,0,.8.32,1.11,1.11,0,0,0,1.11-1.11h0a1.12,1.12,0,0,0-1.11-1.12Z" transform="translate(616.67 -50.94)"/><path id="Path_3686" data-name="Path 3686" class="cls-4" d="M-442.55,546.07a1.13,1.13,0,0,0-1.14,1.11,1.13,1.13,0,0,0,1.14,1.13,1.12,1.12,0,0,0,1.11-1.13A1.13,1.13,0,0,0-442.55,546.07Z" transform="translate(616.67 -50.94)"/><path id="Path_3687" data-name="Path 3687" class="cls-4" d="M-442.55,566.65a1.08,1.08,0,0,0-.8.31,1.1,1.1,0,0,0-.34.8,1.1,1.1,0,0,0,.34.8,1.13,1.13,0,0,0,.8.32,1.12,1.12,0,0,0,1.11-1.12,1.11,1.11,0,0,0-1.11-1.11Z" transform="translate(616.67 -50.94)"/><circle id="Ellipse_160" data-name="Ellipse 160" class="cls-4" cx="174.14" cy="537.37" r="1.11"/><circle id="Ellipse_161" data-name="Ellipse 161" class="cls-4" cx="174.14" cy="557.96" r="1.11"/><circle id="Ellipse_162" data-name="Ellipse 162" class="cls-4" cx="174.14" cy="578.54" r="1.11"/><circle id="Ellipse_163" data-name="Ellipse 163" class="cls-4" cx="174.14" cy="599.09" r="1.11"/><circle id="Ellipse_164" data-name="Ellipse 164" class="cls-4" cx="174.14" cy="619.68" r="1.11"/><circle id="Ellipse_165" data-name="Ellipse 165" class="cls-4" cx="174.14" cy="640.24" r="1.11"/><circle id="Ellipse_166" data-name="Ellipse 166" class="cls-4" cx="174.14" cy="660.82" r="1.11"/><path id="Path_3688" data-name="Path 3688" class="cls-4" d="M-442.55,731.21a1.12,1.12,0,0,0-1.16,1.11,1.14,1.14,0,0,0,1.11,1.16,1.14,1.14,0,0,0,1.16-1.11v0A1.13,1.13,0,0,0-442.55,731.21Z" transform="translate(616.67 -50.94)"/><path id="Path_3689" data-name="Path 3689" class="cls-4" d="M-442.55,751.79a1.12,1.12,0,0,0-1.12,1.11,1.1,1.1,0,0,0,1.12,1.11,1.11,1.11,0,0,0,1.11-1.11,1.11,1.11,0,0,0-1.11-1.11Z" transform="translate(616.67 -50.94)"/><path id="Path_3690" data-name="Path 3690" class="cls-4" d="M-425,504.85a1.12,1.12,0,0,0-1.11,1.12h0a1.1,1.1,0,0,0,.32.8,1.1,1.1,0,0,0,.79.33,1.14,1.14,0,0,0,.8-.33,1.14,1.14,0,0,0,.32-.8,1.12,1.12,0,0,0-1.11-1.12Z" transform="translate(616.67 -50.94)"/><path id="Path_3691" data-name="Path 3691" class="cls-4" d="M-425,525.51a1.05,1.05,0,0,0-.79.31,1.09,1.09,0,0,0-.32.8,1.06,1.06,0,0,0,.32.79,1.06,1.06,0,0,0,.79.32,1.06,1.06,0,0,0,.79-.32,1.06,1.06,0,0,0,.32-.79,1.09,1.09,0,0,0-.32-.8A1.05,1.05,0,0,0-425,525.51Z" transform="translate(616.67 -50.94)"/><path id="Path_3692" data-name="Path 3692" class="cls-4" d="M-425,546.07a1.11,1.11,0,0,0-1.11,1.11h0a1.1,1.1,0,0,0,.32.8,1.1,1.1,0,0,0,.79.33,1.14,1.14,0,0,0,.8-.33,1.14,1.14,0,0,0,.32-.8,1.11,1.11,0,0,0-1.11-1.11h0Z" transform="translate(616.67 -50.94)"/><path id="Path_3693" data-name="Path 3693" class="cls-4" d="M-425,566.65a1.05,1.05,0,0,0-.79.31,1.09,1.09,0,0,0-.32.8,1.06,1.06,0,0,0,.32.79,1.06,1.06,0,0,0,.79.32,1.06,1.06,0,0,0,.79-.32,1.06,1.06,0,0,0,.32-.79,1.09,1.09,0,0,0-.32-.8A1.05,1.05,0,0,0-425,566.65Z" transform="translate(616.67 -50.94)"/><path id="Path_3694" data-name="Path 3694" class="cls-4" d="M-425,587.2a1.15,1.15,0,0,0-.8.34,1.12,1.12,0,0,0-.31.8,1.11,1.11,0,0,0,1.11,1.11h0a1.11,1.11,0,0,0,1.11-1.11h0a1.09,1.09,0,0,0-.32-.8,1.1,1.1,0,0,0-.8-.34Z" transform="translate(616.67 -50.94)"/><path id="Path_3695" data-name="Path 3695" class="cls-4" d="M-425,607.79a1.11,1.11,0,0,0-1.11,1.11A1.11,1.11,0,0,0-425,610a1.11,1.11,0,0,0,1.11-1.11,1.08,1.08,0,0,0-1.06-1.11Z" transform="translate(616.67 -50.94)"/><path id="Path_3696" data-name="Path 3696" class="cls-4" d="M-425,628.34a1.15,1.15,0,0,0-1.16,1.12,1.15,1.15,0,0,0,1.12,1.16,1.15,1.15,0,0,0,1.16-1.12v0a1.13,1.13,0,0,0-1.09-1.14Z" transform="translate(616.67 -50.94)"/><path id="Path_3697" data-name="Path 3697" class="cls-4" d="M-425,648.93a1.14,1.14,0,0,0-1.16,1.11A1.15,1.15,0,0,0-425,651.2a1.15,1.15,0,0,0,1.16-1.11V650a1.11,1.11,0,0,0-1.12-1.11Z" transform="translate(616.67 -50.94)"/><path id="Path_3698" data-name="Path 3698" class="cls-4" d="M-425,669.42a1.14,1.14,0,0,0-1.16,1.11,1.15,1.15,0,0,0,1.12,1.16,1.15,1.15,0,0,0,1.16-1.12v0a1.11,1.11,0,0,0-1.09-1.13Z" transform="translate(616.67 -50.94)"/><path id="Path_3699" data-name="Path 3699" class="cls-4" d="M-425,690.07a1.14,1.14,0,0,0-1.16,1.11,1.14,1.14,0,0,0,1.12,1.16,1.15,1.15,0,0,0,1.16-1.11v-.05a1.12,1.12,0,0,0-1.12-1.11Z" transform="translate(616.67 -50.94)"/><path id="Path_3700" data-name="Path 3700" class="cls-4" d="M-425,710.65a1.11,1.11,0,0,0-1.11,1.11,1.11,1.11,0,0,0,1.11,1.11,1.11,1.11,0,0,0,1.11-1.11,1.08,1.08,0,0,0-1.06-1.11Z" transform="translate(616.67 -50.94)"/><path id="Path_3701" data-name="Path 3701" class="cls-4" d="M-425,731.21a1.14,1.14,0,0,0-1.16,1.11,1.15,1.15,0,0,0,1.12,1.16,1.15,1.15,0,0,0,1.16-1.11v0a1.11,1.11,0,0,0-1.12-1.11Z" transform="translate(616.67 -50.94)"/><path id="Path_3702" data-name="Path 3702" class="cls-4" d="M-425,751.79a1.11,1.11,0,0,0-1.11,1.11A1.11,1.11,0,0,0-425,754a1.11,1.11,0,0,0,1.11-1.11,1.08,1.08,0,0,0-1.06-1.11Z" transform="translate(616.67 -50.94)"/><path id="Path_3703" data-name="Path 3703" class="cls-4" d="M-407.49,731.21a1.12,1.12,0,0,0-1.15,1.11,1.13,1.13,0,0,0,1.11,1.16,1.15,1.15,0,0,0,1.16-1.11v0a1.11,1.11,0,0,0-1.11-1.11Z" transform="translate(616.67 -50.94)"/><path id="Path_3704" data-name="Path 3704" class="cls-4" d="M-407.49,751.79a1.15,1.15,0,0,0-1.15,1.16,1.15,1.15,0,0,0,1.15,1.16,1.16,1.16,0,0,0,1.16-1.16,1.16,1.16,0,0,0-1.16-1.16Z" transform="translate(616.67 -50.94)"/><path id="Path_3705" data-name="Path 3705" class="cls-4" d="M-390,731.21a1.13,1.13,0,0,0-1.14,1.13,1.14,1.14,0,0,0,1.13,1.14,1.14,1.14,0,0,0,1.14-1.14v0A1.13,1.13,0,0,0-390,731.21Z" transform="translate(616.67 -50.94)"/><path id="Path_3706" data-name="Path 3706" class="cls-4" d="M-390,751.79a1.1,1.1,0,0,0-1.09,1.13,1.11,1.11,0,0,0,1.13,1.09,1.11,1.11,0,0,0,1.09-1.13,1.15,1.15,0,0,0-.33-.77A1.1,1.1,0,0,0-390,751.79Z" transform="translate(616.67 -50.94)"/><path id="Path_3707" data-name="Path 3707" class="cls-4" d="M-284.78,731.21a1.12,1.12,0,0,0-1.16,1.11,1.13,1.13,0,0,0,1.11,1.16,1.14,1.14,0,0,0,1.16-1.11v0A1.13,1.13,0,0,0-284.78,731.21Z" transform="translate(616.67 -50.94)"/><path id="Path_3708" data-name="Path 3708" class="cls-4" d="M-284.79,751.79a1.11,1.11,0,0,0-1.11,1.11,1.1,1.1,0,0,0,1.11,1.11,1.11,1.11,0,0,0,1.12-1.11,1.11,1.11,0,0,0-1.11-1.11Z" transform="translate(616.67 -50.94)"/><path id="Path_3709" data-name="Path 3709" class="cls-4" d="M-330.37,710.86l-9.88-15.56-9.87,15.56Z" transform="translate(616.67 -50.94)"/><path id="Path_3710" data-name="Path 3710" class="cls-4" d="M-330.37,791.24l-9.88-15.56-9.87,15.56Z" transform="translate(616.67 -50.94)"/><path id="Path_3711" data-name="Path 3711" class="cls-4" d="M-330.37,521.7l-9.88-15.55-9.87,15.55Z" transform="translate(616.67 -50.94)"/><path id="Path_3712" data-name="Path 3712" class="cls-4" d="M-330.37,602.11l-9.88-15.56-9.87,15.56Z" transform="translate(616.67 -50.94)"/><path id="Path_3713" data-name="Path 3713" class="cls-4" d="M-330.37,636.18l-9.88-15.55-9.87,15.55Z" transform="translate(616.67 -50.94)"/><rect id="Rectangle_202" data-name="Rectangle 202" class="cls-4" y="11.8" width="530.63" height="14.07"/><path id="Path_3714" data-name="Path 3714" class="cls-6" d="M-578.73,125.28A28.27,28.27,0,0,0-607,153.53a28.27,28.27,0,0,0,28.25,28.25,28.27,28.27,0,0,0,28.23-28.25A28.27,28.27,0,0,0-578.73,125.28Zm0,51.82a23.59,23.59,0,0,1-23.57-23.57A23.59,23.59,0,0,1-578.73,130a23.61,23.61,0,0,1,23.55,23.57,23.61,23.61,0,0,1-23.55,23.57Z" transform="translate(616.67 -50.94)"/><rect id="Rectangle_203" data-name="Rectangle 203" class="cls-4" x="26.35" y="184.86" width="4.64" height="462.16"/><rect id="Rectangle_204" data-name="Rectangle 204" class="cls-6" x="465.98" y="309.33" width="120.92" height="5.05"/><rect id="Rectangle_205" data-name="Rectangle 205" class="cls-6" x="665.38" y="309.33" width="28.67" height="5.05"/><circle id="Ellipse_167" data-name="Ellipse 167" class="cls-4" cx="113.07" cy="736.16" r="3.27"/><circle id="Ellipse_168" data-name="Ellipse 168" class="cls-4" cx="113.07" cy="693.84" r="3.27"/><circle id="Ellipse_169" data-name="Ellipse 169" class="cls-4" cx="113.07" cy="651.54" r="3.27"/><circle id="Ellipse_170" data-name="Ellipse 170" class="cls-4" cx="113.07" cy="609.22" r="3.27"/><path id="Path_3715" data-name="Path 3715" class="cls-4" d="M-506.89,617.85a3.29,3.29,0,0,1,3.29-3.3,3.29,3.29,0,0,1,3.29,3.3,3.29,3.29,0,0,1-3.29,3.29,3.29,3.29,0,0,1-3.29-3.29Z" transform="translate(616.67 -50.94)"/><circle id="Ellipse_171" data-name="Ellipse 171" class="cls-4" cx="113.07" cy="524.6" r="3.27"/><path id="Path_3716" data-name="Path 3716" class="cls-4" d="M-506.89,533.23A3.29,3.29,0,0,1-503.6,530a3.27,3.27,0,0,1,3.27,3.26h0a3.27,3.27,0,0,1-3.27,3.26,3.29,3.29,0,0,1-3.29-3.26Z" transform="translate(616.67 -50.94)"/><rect id="Rectangle_206" data-name="Rectangle 206" class="cls-5" x="1049.98" y="672.66" width="459.63" height="67.63"/><path id="Path_3717" data-name="Path 3717" class="cls-4" d="M1067.71,503.68A1.33,1.33,0,0,0,1069,505h80.21a1.25,1.25,0,0,0,.93-.38l40.11-40.12a1.32,1.32,0,0,0,.38-.92V383.37a1.28,1.28,0,0,0-.82-1.22,1.45,1.45,0,0,0-.5-.11h-80.21a1.35,1.35,0,0,0-.93.39l-40.11,40.11a1.34,1.34,0,0,0-.38.93Zm2.65-78.89h77.56v77.56h-77.56Zm56.87-40.1-37.46,37.45h-9.15l37.46-37.45Zm10,0-37.46,37.45h-9.11l37.46-37.45Zm10.06,0-37.46,37.45h-9.12l37.46-37.45Zm10.05,0-37.46,37.45h-9.11l37.46-37.45Zm10.06,0L1130,422.14h-9.12l37.46-37.45Zm10,0L1140,422.14H1131l37.46-37.45Zm8.65,0-37.46,37.45H1141l37.46-37.45Zm1.87,60-37.45,37.44V473L1188,435.56Zm0-10.1-37.45,37.46v-9.14L1188,425.48Zm0-10.08L1150.57,462v-9.14L1188,415.4Zm0-10.08-37.45,37.46v-9.14L1188,405.32Zm0-10.08-37.45,37.51v-9.14L1188,395.29Zm-37.45,78.72L1188,445.64v9.14l-37.45,37.45ZM1188,394.35l-37.45,37.46v-7.73L1188,386.61Zm-37.45,106.19v-7.3L1188,455.78v7.3Zm-40.88-115.79h7.49l-37.47,37.45h-7.48Z" transform="translate(616.67 -50.94)"/><path id="Path_3718" data-name="Path 3718" class="cls-4" d="M1150.89,737.57a4.2,4.2,0,1,0-4.2,4.2,4.21,4.21,0,0,0,4.2-4.2Z" transform="translate(616.67 -50.94)"/><path id="Path_3719" data-name="Path 3719" class="cls-4" d="M1104.67,737.57a4.2,4.2,0,1,0-4.2,4.2,4.21,4.21,0,0,0,4.2-4.2Z" transform="translate(616.67 -50.94)"/><path id="Path_3720" data-name="Path 3720" class="cls-4" d="M1058.32,737.57a4.2,4.2,0,1,0-4.2,4.2,4.21,4.21,0,0,0,4.2-4.2Z" transform="translate(616.67 -50.94)"/><path id="Path_3721" data-name="Path 3721" class="cls-4" d="M1012.22,737.57a4.2,4.2,0,1,0-4.2,4.2,4.21,4.21,0,0,0,4.2-4.2Z" transform="translate(616.67 -50.94)"/><path id="Path_3722" data-name="Path 3722" class="cls-4" d="M966,737.57a4.19,4.19,0,1,0-4.17,4.2A4.18,4.18,0,0,0,966,737.57Z" transform="translate(616.67 -50.94)"/><path id="Path_3723" data-name="Path 3723" class="cls-4" d="M919.76,737.57a4.2,4.2,0,1,0-4.2,4.2,4.21,4.21,0,0,0,4.2-4.2Z" transform="translate(616.67 -50.94)"/><path id="Path_3724" data-name="Path 3724" class="cls-4" d="M873.55,737.57a4.2,4.2,0,1,0-4.2,4.2,4.21,4.21,0,0,0,4.2-4.2Z" transform="translate(616.67 -50.94)"/><path id="Path_3725" data-name="Path 3725" class="cls-4" d="M827.31,737.57a4.2,4.2,0,1,0-4.2,4.2,4.21,4.21,0,0,0,4.2-4.2Z" transform="translate(616.67 -50.94)"/><path id="Path_3726" data-name="Path 3726" class="cls-4" d="M781.09,737.57a4.2,4.2,0,1,0-4.2,4.2,4.21,4.21,0,0,0,4.2-4.2Z" transform="translate(616.67 -50.94)"/><path id="Path_3727" data-name="Path 3727" class="cls-4" d="M734.85,737.57a4.18,4.18,0,1,0-4.2,4.2,4.18,4.18,0,0,0,4.2-4.2Z" transform="translate(616.67 -50.94)"/><path id="Path_3728" data-name="Path 3728" class="cls-4" d="M688.64,737.57a4.2,4.2,0,1,0-4.2,4.2,4.21,4.21,0,0,0,4.2-4.2Z" transform="translate(616.67 -50.94)"/><path id="Path_3729" data-name="Path 3729" class="cls-4" d="M642.42,737.57a4.2,4.2,0,1,0-4.2,4.2,4.21,4.21,0,0,0,4.2-4.2Z" transform="translate(616.67 -50.94)"/><path id="Path_3730" data-name="Path 3730" class="cls-4" d="M596.18,737.57a4.2,4.2,0,1,0-4.2,4.2,4.21,4.21,0,0,0,4.2-4.2Z" transform="translate(616.67 -50.94)"/><path id="Path_3731" data-name="Path 3731" class="cls-4" d="M1150.89,698.2a4.2,4.2,0,1,0-4.2,4.2,4.2,4.2,0,0,0,4.2-4.2Z" transform="translate(616.67 -50.94)"/><path id="Path_3732" data-name="Path 3732" class="cls-4" d="M1104.67,698.2a4.2,4.2,0,1,0-4.2,4.2,4.2,4.2,0,0,0,4.2-4.2Z" transform="translate(616.67 -50.94)"/><path id="Path_3733" data-name="Path 3733" class="cls-4" d="M1058.32,698.2a4.2,4.2,0,1,0-4.2,4.2,4.2,4.2,0,0,0,4.2-4.2Z" transform="translate(616.67 -50.94)"/><path id="Path_3734" data-name="Path 3734" class="cls-4" d="M1012.22,698.2a4.2,4.2,0,1,0-4.2,4.2,4.2,4.2,0,0,0,4.2-4.2Z" transform="translate(616.67 -50.94)"/><path id="Path_3735" data-name="Path 3735" class="cls-4" d="M966,698.2a4.19,4.19,0,1,0-4.17,4.2A4.19,4.19,0,0,0,966,698.2Z" transform="translate(616.67 -50.94)"/><path id="Path_3736" data-name="Path 3736" class="cls-4" d="M919.76,698.2a4.2,4.2,0,1,0-4.2,4.2,4.2,4.2,0,0,0,4.2-4.2Z" transform="translate(616.67 -50.94)"/><path id="Path_3737" data-name="Path 3737" class="cls-4" d="M873.55,698.2a4.2,4.2,0,1,0-4.2,4.2,4.2,4.2,0,0,0,4.2-4.2Z" transform="translate(616.67 -50.94)"/><path id="Path_3738" data-name="Path 3738" class="cls-4" d="M827.31,698.2a4.2,4.2,0,1,0-4.2,4.2,4.2,4.2,0,0,0,4.2-4.2Z" transform="translate(616.67 -50.94)"/><path id="Path_3739" data-name="Path 3739" class="cls-4" d="M781.09,698.2a4.2,4.2,0,1,0-4.2,4.2,4.2,4.2,0,0,0,4.2-4.2Z" transform="translate(616.67 -50.94)"/><path id="Path_3740" data-name="Path 3740" class="cls-4" d="M734.85,698.2a4.18,4.18,0,1,0-4.2,4.2,4.19,4.19,0,0,0,4.2-4.2Z" transform="translate(616.67 -50.94)"/><path id="Path_3741" data-name="Path 3741" class="cls-4" d="M688.64,698.2a4.2,4.2,0,1,0-4.2,4.2,4.2,4.2,0,0,0,4.2-4.2Z" transform="translate(616.67 -50.94)"/><path id="Path_3742" data-name="Path 3742" class="cls-4" d="M642.42,698.2a4.2,4.2,0,1,0-4.2,4.2,4.2,4.2,0,0,0,4.2-4.2Z" transform="translate(616.67 -50.94)"/><path id="Path_3743" data-name="Path 3743" class="cls-4" d="M596.18,698.2a4.2,4.2,0,1,0-4.2,4.2,4.2,4.2,0,0,0,4.2-4.2Z" transform="translate(616.67 -50.94)"/><path id="Path_3744" data-name="Path 3744" class="cls-4" d="M1150.89,658.79a4.2,4.2,0,1,0-4.2,4.2,4.2,4.2,0,0,0,4.2-4.2Z" transform="translate(616.67 -50.94)"/><path id="Path_3745" data-name="Path 3745" class="cls-4" d="M1104.67,658.79a4.2,4.2,0,1,0-4.2,4.2,4.2,4.2,0,0,0,4.2-4.2Z" transform="translate(616.67 -50.94)"/><path id="Path_3746" data-name="Path 3746" class="cls-4" d="M1058.32,658.79a4.2,4.2,0,1,0-4.2,4.2,4.2,4.2,0,0,0,4.2-4.2Z" transform="translate(616.67 -50.94)"/><path id="Path_3747" data-name="Path 3747" class="cls-4" d="M1012.22,658.79a4.2,4.2,0,1,0-4.2,4.2,4.2,4.2,0,0,0,4.2-4.2Z" transform="translate(616.67 -50.94)"/><path id="Path_3748" data-name="Path 3748" class="cls-4" d="M966,658.79a4.19,4.19,0,1,0-4.17,4.2A4.18,4.18,0,0,0,966,658.79Z" transform="translate(616.67 -50.94)"/><path id="Path_3749" data-name="Path 3749" class="cls-4" d="M919.76,658.79a4.2,4.2,0,1,0-4.2,4.2,4.2,4.2,0,0,0,4.2-4.2Z" transform="translate(616.67 -50.94)"/><path id="Path_3750" data-name="Path 3750" class="cls-4" d="M873.55,658.79a4.2,4.2,0,1,0-4.2,4.2,4.2,4.2,0,0,0,4.2-4.2Z" transform="translate(616.67 -50.94)"/><path id="Path_3751" data-name="Path 3751" class="cls-4" d="M827.31,658.79a4.2,4.2,0,1,0-4.2,4.2,4.2,4.2,0,0,0,4.2-4.2Z" transform="translate(616.67 -50.94)"/><path id="Path_3752" data-name="Path 3752" class="cls-4" d="M781.09,658.79a4.2,4.2,0,1,0-4.2,4.2,4.2,4.2,0,0,0,4.2-4.2Z" transform="translate(616.67 -50.94)"/><path id="Path_3753" data-name="Path 3753" class="cls-4" d="M734.85,658.79a4.18,4.18,0,1,0-4.2,4.2,4.18,4.18,0,0,0,4.2-4.2Z" transform="translate(616.67 -50.94)"/><path id="Path_3754" data-name="Path 3754" class="cls-4" d="M688.64,658.79a4.2,4.2,0,1,0-4.2,4.2,4.2,4.2,0,0,0,4.2-4.2Z" transform="translate(616.67 -50.94)"/><path id="Path_3755" data-name="Path 3755" class="cls-4" d="M642.42,658.79a4.2,4.2,0,1,0-4.2,4.2,4.2,4.2,0,0,0,4.2-4.2Z" transform="translate(616.67 -50.94)"/><path id="Path_3756" data-name="Path 3756" class="cls-4" d="M596.18,658.79A4.2,4.2,0,1,0,592,663a4.2,4.2,0,0,0,4.2-4.2Z" transform="translate(616.67 -50.94)"/><path id="Path_3757" data-name="Path 3757" class="cls-4" d="M1150.89,619.42a4.2,4.2,0,1,0-4.2,4.2,4.2,4.2,0,0,0,4.2-4.2Z" transform="translate(616.67 -50.94)"/><path id="Path_3758" data-name="Path 3758" class="cls-4" d="M1104.67,619.42a4.2,4.2,0,1,0-4.2,4.2,4.2,4.2,0,0,0,4.2-4.2Z" transform="translate(616.67 -50.94)"/><path id="Path_3759" data-name="Path 3759" class="cls-4" d="M1058.32,619.42a4.2,4.2,0,1,0-4.2,4.2,4.2,4.2,0,0,0,4.2-4.2Z" transform="translate(616.67 -50.94)"/><path id="Path_3760" data-name="Path 3760" class="cls-4" d="M1012.22,619.42a4.2,4.2,0,1,0-4.2,4.2,4.2,4.2,0,0,0,4.2-4.2Z" transform="translate(616.67 -50.94)"/><path id="Path_3761" data-name="Path 3761" class="cls-4" d="M966,619.42a4.19,4.19,0,1,0-4.17,4.2A4.18,4.18,0,0,0,966,619.42Z" transform="translate(616.67 -50.94)"/><path id="Path_3762" data-name="Path 3762" class="cls-4" d="M919.76,619.42a4.2,4.2,0,1,0-4.2,4.2,4.2,4.2,0,0,0,4.2-4.2Z" transform="translate(616.67 -50.94)"/><path id="Path_3763" data-name="Path 3763" class="cls-4" d="M873.55,619.42a4.2,4.2,0,1,0-4.2,4.2,4.2,4.2,0,0,0,4.2-4.2Z" transform="translate(616.67 -50.94)"/><path id="Path_3764" data-name="Path 3764" class="cls-4" d="M827.31,619.42a4.2,4.2,0,1,0-4.2,4.2,4.2,4.2,0,0,0,4.2-4.2Z" transform="translate(616.67 -50.94)"/><path id="Path_3765" data-name="Path 3765" class="cls-4" d="M781.09,619.42a4.2,4.2,0,1,0-4.2,4.2,4.2,4.2,0,0,0,4.2-4.2Z" transform="translate(616.67 -50.94)"/><path id="Path_3766" data-name="Path 3766" class="cls-4" d="M734.85,619.42a4.18,4.18,0,1,0-4.2,4.2,4.18,4.18,0,0,0,4.2-4.2Z" transform="translate(616.67 -50.94)"/><path id="Path_3767" data-name="Path 3767" class="cls-4" d="M688.64,619.42a4.2,4.2,0,1,0-4.2,4.2,4.2,4.2,0,0,0,4.2-4.2Z" transform="translate(616.67 -50.94)"/><path id="Path_3768" data-name="Path 3768" class="cls-4" d="M642.42,619.42a4.2,4.2,0,1,0-4.2,4.2,4.2,4.2,0,0,0,4.2-4.2Z" transform="translate(616.67 -50.94)"/><path id="Path_3769" data-name="Path 3769" class="cls-4" d="M596.18,619.42a4.2,4.2,0,1,0-4.2,4.2,4.2,4.2,0,0,0,4.2-4.2Z" transform="translate(616.67 -50.94)"/><path id="Path_3770" data-name="Path 3770" class="cls-4" d="M1150.89,580a4.2,4.2,0,1,0-4.2,4.2,4.2,4.2,0,0,0,4.2-4.2Z" transform="translate(616.67 -50.94)"/><path id="Path_3771" data-name="Path 3771" class="cls-4" d="M1104.67,580a4.2,4.2,0,1,0-4.2,4.2,4.2,4.2,0,0,0,4.2-4.2Z" transform="translate(616.67 -50.94)"/><path id="Path_3772" data-name="Path 3772" class="cls-4" d="M1058.32,580a4.2,4.2,0,1,0-4.2,4.2,4.2,4.2,0,0,0,4.2-4.2Z" transform="translate(616.67 -50.94)"/><circle id="Ellipse_172" data-name="Ellipse 172" class="cls-4" cx="1624.69" cy="529.1" r="4.2"/><circle id="Ellipse_173" data-name="Ellipse 173" class="cls-4" cx="1578.46" cy="529.1" r="4.2"/><circle id="Ellipse_174" data-name="Ellipse 174" class="cls-4" cx="1532.24" cy="529.1" r="4.2"/><path id="Path_3773" data-name="Path 3773" class="cls-4" d="M873.55,580a4.2,4.2,0,1,0-4.2,4.2,4.2,4.2,0,0,0,4.2-4.2Z" transform="translate(616.67 -50.94)"/><path id="Path_3774" data-name="Path 3774" class="cls-4" d="M827.31,580a4.2,4.2,0,1,0-4.2,4.2,4.2,4.2,0,0,0,4.2-4.2Z" transform="translate(616.67 -50.94)"/><path id="Path_3775" data-name="Path 3775" class="cls-4" d="M781.09,580a4.2,4.2,0,1,0-4.2,4.2,4.2,4.2,0,0,0,4.2-4.2Z" transform="translate(616.67 -50.94)"/><path id="Path_3776" data-name="Path 3776" class="cls-4" d="M734.85,580a4.18,4.18,0,1,0-4.2,4.2,4.19,4.19,0,0,0,4.2-4.2Z" transform="translate(616.67 -50.94)"/><path id="Path_3777" data-name="Path 3777" class="cls-4" d="M688.64,580a4.2,4.2,0,1,0-4.2,4.2,4.2,4.2,0,0,0,4.2-4.2Z" transform="translate(616.67 -50.94)"/><path id="Path_3778" data-name="Path 3778" class="cls-4" d="M642.42,580a4.2,4.2,0,1,0-4.2,4.2,4.2,4.2,0,0,0,4.2-4.2Z" transform="translate(616.67 -50.94)"/><path id="Path_3779" data-name="Path 3779" class="cls-4" d="M596.18,580a4.2,4.2,0,1,0-4.2,4.2,4.2,4.2,0,0,0,4.2-4.2Z" transform="translate(616.67 -50.94)"/><path id="Path_3780" data-name="Path 3780" class="cls-4" d="M1150.89,540.63a4.2,4.2,0,1,0-4.2,4.2,4.21,4.21,0,0,0,4.2-4.2Z" transform="translate(616.67 -50.94)"/><path id="Path_3781" data-name="Path 3781" class="cls-4" d="M1104.67,540.63a4.2,4.2,0,1,0-4.2,4.2,4.21,4.21,0,0,0,4.2-4.2Z" transform="translate(616.67 -50.94)"/><path id="Path_3782" data-name="Path 3782" class="cls-4" d="M1058.32,540.63a4.2,4.2,0,1,0-4.2,4.2,4.21,4.21,0,0,0,4.2-4.2Z" transform="translate(616.67 -50.94)"/><path id="Path_3783" data-name="Path 3783" class="cls-4" d="M1012.22,540.63a4.2,4.2,0,1,0-4.2,4.2,4.21,4.21,0,0,0,4.2-4.2Z" transform="translate(616.67 -50.94)"/><path id="Path_3784" data-name="Path 3784" class="cls-4" d="M966,540.63a4.19,4.19,0,1,0-4.17,4.2A4.18,4.18,0,0,0,966,540.63Z" transform="translate(616.67 -50.94)"/><path id="Path_3785" data-name="Path 3785" class="cls-4" d="M919.76,540.63a4.2,4.2,0,1,0-4.2,4.2,4.21,4.21,0,0,0,4.2-4.2Z" transform="translate(616.67 -50.94)"/><path id="Path_3786" data-name="Path 3786" class="cls-4" d="M873.55,540.63a4.2,4.2,0,1,0-4.2,4.2,4.21,4.21,0,0,0,4.2-4.2Z" transform="translate(616.67 -50.94)"/><path id="Path_3787" data-name="Path 3787" class="cls-4" d="M827.31,540.63a4.2,4.2,0,1,0-4.2,4.2,4.21,4.21,0,0,0,4.2-4.2Z" transform="translate(616.67 -50.94)"/><path id="Path_3788" data-name="Path 3788" class="cls-4" d="M781.09,540.63a4.2,4.2,0,1,0-4.2,4.2,4.21,4.21,0,0,0,4.2-4.2Z" transform="translate(616.67 -50.94)"/><path id="Path_3789" data-name="Path 3789" class="cls-4" d="M734.85,540.63a4.18,4.18,0,1,0-4.2,4.2,4.18,4.18,0,0,0,4.2-4.2Z" transform="translate(616.67 -50.94)"/><path id="Path_3790" data-name="Path 3790" class="cls-4" d="M688.64,540.63a4.2,4.2,0,1,0-4.2,4.2,4.21,4.21,0,0,0,4.2-4.2Z" transform="translate(616.67 -50.94)"/><path id="Path_3791" data-name="Path 3791" class="cls-4" d="M642.42,540.63a4.2,4.2,0,1,0-4.2,4.2,4.21,4.21,0,0,0,4.2-4.2Z" transform="translate(616.67 -50.94)"/><path id="Path_3792" data-name="Path 3792" class="cls-4" d="M596.18,540.63a4.2,4.2,0,1,0-4.2,4.2,4.21,4.21,0,0,0,4.2-4.2Z" transform="translate(616.67 -50.94)"/><path id="Path_3793" data-name="Path 3793" class="cls-4" d="M1059.07,111a1.14,1.14,0,0,0,0-2.28,1.15,1.15,0,0,0-1.16,1.12v0A1.15,1.15,0,0,0,1059.07,111Z" transform="translate(616.67 -50.94)"/><path id="Path_3794" data-name="Path 3794" class="cls-4" d="M1059.07,90.39a1.11,1.11,0,1,0-1.11-1.11h0a1.11,1.11,0,0,0,1.11,1.11Z" transform="translate(616.67 -50.94)"/><path id="Path_3795" data-name="Path 3795" class="cls-4" d="M1041.55,111a1.14,1.14,0,1,0-1.11-1.16v0a1.12,1.12,0,0,0,1.11,1.12Z" transform="translate(616.67 -50.94)"/><path id="Path_3796" data-name="Path 3796" class="cls-4" d="M1041.55,90.39a1.11,1.11,0,1,0-1.11-1.11h0a1.09,1.09,0,0,0,1.07,1.11Z" transform="translate(616.67 -50.94)"/><path id="Path_3797" data-name="Path 3797" class="cls-4" d="M1024,111a1.14,1.14,0,1,0-1.11-1.16v0A1.11,1.11,0,0,0,1024,111Z" transform="translate(616.67 -50.94)"/><path id="Path_3798" data-name="Path 3798" class="cls-4" d="M1024,90.39a1.11,1.11,0,0,0,0-2.22,1.11,1.11,0,0,0-1.11,1.11h0a1.08,1.08,0,0,0,1.06,1.11Z" transform="translate(616.67 -50.94)"/><path id="Path_3799" data-name="Path 3799" class="cls-4" d="M1006.51,111a1.14,1.14,0,0,0,0-2.27,1.14,1.14,0,0,0-1.14,1.14v0A1.13,1.13,0,0,0,1006.51,111Z" transform="translate(616.67 -50.94)"/><path id="Path_3800" data-name="Path 3800" class="cls-4" d="M1006.51,90.39a1.11,1.11,0,1,0-1.14-1.09,1.14,1.14,0,0,0,.34.78A1.08,1.08,0,0,0,1006.51,90.39Z" transform="translate(616.67 -50.94)"/><path id="Path_3801" data-name="Path 3801" class="cls-4" d="M989,111a1.14,1.14,0,1,0-1.11-1.16v0A1.14,1.14,0,0,0,989,111Z" transform="translate(616.67 -50.94)"/><path id="Path_3802" data-name="Path 3802" class="cls-4" d="M989,90.39a1.11,1.11,0,1,0-1.11-1.11h0A1.11,1.11,0,0,0,989,90.39Z" transform="translate(616.67 -50.94)"/><path id="Path_3803" data-name="Path 3803" class="cls-4" d="M1146.73,337.33a1.14,1.14,0,0,0,1.11-1.12,1.12,1.12,0,1,0-1.11,1.12Z" transform="translate(616.67 -50.94)"/><path id="Path_3804" data-name="Path 3804" class="cls-4" d="M1146.73,316.68a1.11,1.11,0,1,0-.06,0Z" transform="translate(616.67 -50.94)"/><path id="Path_3805" data-name="Path 3805" class="cls-4" d="M1146.73,296.12a1.14,1.14,0,0,0,1.11-1.12,1.12,1.12,0,1,0-1.11,1.12Z" transform="translate(616.67 -50.94)"/><path id="Path_3806" data-name="Path 3806" class="cls-4" d="M1146.73,275.54a1.12,1.12,0,0,0,.07-2.23h-.07a1.12,1.12,0,0,0-.06,2.23Z" transform="translate(616.67 -50.94)"/><path id="Path_3807" data-name="Path 3807" class="cls-4" d="M1146.73,255a1.13,1.13,0,0,0,1-1.09,1.14,1.14,0,0,0-1.11-1.12,1.16,1.16,0,0,0-1.14,1.12,1.14,1.14,0,0,0,1.18,1.09Z" transform="translate(616.67 -50.94)"/><path id="Path_3808" data-name="Path 3808" class="cls-4" d="M1146.73,234.4a1.12,1.12,0,1,0-1.13-1.09,1.11,1.11,0,0,0,1.13,1.09Z" transform="translate(616.67 -50.94)"/><path id="Path_3809" data-name="Path 3809" class="cls-4" d="M1146.73,213.84a1.14,1.14,0,1,0-1.13-1.14h0A1.13,1.13,0,0,0,1146.73,213.84Z" transform="translate(616.67 -50.94)"/><path id="Path_3810" data-name="Path 3810" class="cls-4" d="M1146.73,193.25a1.12,1.12,0,0,0,1.14-1.13,1.14,1.14,0,1,0-2.27,0v0A1.12,1.12,0,0,0,1146.73,193.25Z" transform="translate(616.67 -50.94)"/><path id="Path_3811" data-name="Path 3811" class="cls-4" d="M1146.73,172.77a1.14,1.14,0,1,0-1.13-1.14h0A1.13,1.13,0,0,0,1146.73,172.77Z" transform="translate(616.67 -50.94)"/><path id="Path_3812" data-name="Path 3812" class="cls-4" d="M1146.73,152.11a1.12,1.12,0,0,0,1.14-1.13,1.14,1.14,0,1,0-2.27,0v0A1.12,1.12,0,0,0,1146.73,152.11Z" transform="translate(616.67 -50.94)"/><path id="Path_3813" data-name="Path 3813" class="cls-4" d="M1146.73,131.53a1.11,1.11,0,1,0-1.13-1.08,1.17,1.17,0,0,0,.33.77A1.09,1.09,0,0,0,1146.73,131.53Z" transform="translate(616.67 -50.94)"/><path id="Path_3814" data-name="Path 3814" class="cls-4" d="M1146.73,111a1.12,1.12,0,0,0,1.14-1.13,1.14,1.14,0,1,0-2.27,0v0A1.12,1.12,0,0,0,1146.73,111Z" transform="translate(616.67 -50.94)"/><path id="Path_3815" data-name="Path 3815" class="cls-4" d="M1146.73,90.39a1.11,1.11,0,1,0-1.13-1.08,1.17,1.17,0,0,0,.33.77A1.09,1.09,0,0,0,1146.73,90.39Z" transform="translate(616.67 -50.94)"/><circle id="Ellipse_175" data-name="Ellipse 175" class="cls-4" cx="1745.86" cy="285.2" r="1.11"/><path id="Path_3816" data-name="Path 3816" class="cls-4" d="M1129.21,316.68a1.12,1.12,0,0,0,.07-2.23h-.07a1.12,1.12,0,1,0-.07,2.23Z" transform="translate(616.67 -50.94)"/><path id="Path_3817" data-name="Path 3817" class="cls-4" d="M1129.21,296.12a1.13,1.13,0,1,0,0-2.25,1.13,1.13,0,0,0-1.11,1.13A1.14,1.14,0,0,0,1129.21,296.12Z" transform="translate(616.67 -50.94)"/><path id="Path_3818" data-name="Path 3818" class="cls-4" d="M1129.21,275.54a1.12,1.12,0,0,0,.07-2.23h-.07a1.12,1.12,0,0,0,0,2.23Z" transform="translate(616.67 -50.94)"/><circle id="Ellipse_176" data-name="Ellipse 176" class="cls-4" cx="1745.86" cy="202.92" r="1.11"/><circle id="Ellipse_177" data-name="Ellipse 177" class="cls-4" cx="1745.86" cy="182.34" r="1.11"/><circle id="Ellipse_178" data-name="Ellipse 178" class="cls-4" cx="1745.86" cy="161.76" r="1.11"/><circle id="Ellipse_179" data-name="Ellipse 179" class="cls-4" cx="1745.86" cy="141.2" r="1.11"/><circle id="Ellipse_180" data-name="Ellipse 180" class="cls-4" cx="1745.86" cy="120.62" r="1.11"/><circle id="Ellipse_181" data-name="Ellipse 181" class="cls-4" cx="1745.86" cy="100.06" r="1.11"/><circle id="Ellipse_182" data-name="Ellipse 182" class="cls-4" cx="1745.86" cy="79.48" r="1.11"/><path id="Path_3819" data-name="Path 3819" class="cls-4" d="M1129.21,111a1.14,1.14,0,1,0-1.11-1.16v0A1.14,1.14,0,0,0,1129.21,111Z" transform="translate(616.67 -50.94)"/><path id="Path_3820" data-name="Path 3820" class="cls-4" d="M1129.21,90.39a1.11,1.11,0,1,0-1.11-1.11h0a1.11,1.11,0,0,0,1.11,1.11Z" transform="translate(616.67 -50.94)"/><path id="Path_3821" data-name="Path 3821" class="cls-4" d="M1111.66,337.33a1.12,1.12,0,0,0,1.12-1.11h0a1.12,1.12,0,0,0-2.23-.06v.06a1.12,1.12,0,0,0,1.11,1.12Z" transform="translate(616.67 -50.94)"/><path id="Path_3822" data-name="Path 3822" class="cls-4" d="M1111.66,316.68a1.1,1.1,0,0,0,1.12-1.07v-.05a1.09,1.09,0,0,0-1.07-1.11h0a1.1,1.1,0,0,0-1.11,1.07v0a1.11,1.11,0,0,0,1.07,1.12Z" transform="translate(616.67 -50.94)"/><path id="Path_3823" data-name="Path 3823" class="cls-4" d="M1111.66,296.12a1.12,1.12,0,0,0,1.12-1.11h0a1.12,1.12,0,0,0-2.23-.06V295a1.12,1.12,0,0,0,1.11,1.12Z" transform="translate(616.67 -50.94)"/><path id="Path_3824" data-name="Path 3824" class="cls-4" d="M1111.66,275.54a1.1,1.1,0,0,0,1.12-1.07v-.05a1.09,1.09,0,0,0-1.07-1.11h0a1.1,1.1,0,0,0-1.11,1.07v0a1.11,1.11,0,0,0,1.07,1.12Z" transform="translate(616.67 -50.94)"/><path id="Path_3825" data-name="Path 3825" class="cls-4" d="M1111.66,255a1.12,1.12,0,0,0,1.12-1.11v0a1.12,1.12,0,0,0-2.23,0,1.13,1.13,0,0,0,1.09,1.14Z" transform="translate(616.67 -50.94)"/><path id="Path_3826" data-name="Path 3826" class="cls-4" d="M1111.66,234.4a1.12,1.12,0,1,0-1.11-1.12h0a1.1,1.1,0,0,0,1.07,1.12Z" transform="translate(616.67 -50.94)"/><path id="Path_3827" data-name="Path 3827" class="cls-4" d="M1111.66,213.84a1.14,1.14,0,0,0,1.16-1.11,1.12,1.12,0,0,0-1.11-1.16,1.14,1.14,0,0,0-1.16,1.11v0a1.13,1.13,0,0,0,1.09,1.14Z" transform="translate(616.67 -50.94)"/><path id="Path_3828" data-name="Path 3828" class="cls-4" d="M1111.66,193.25a1.12,1.12,0,0,0,1.16-1.11,1.14,1.14,0,0,0-1.11-1.16,1.15,1.15,0,0,0-1.16,1.12v0a1.11,1.11,0,0,0,1.11,1.11Z" transform="translate(616.67 -50.94)"/><path id="Path_3829" data-name="Path 3829" class="cls-4" d="M1111.66,172.77a1.14,1.14,0,0,0,1.16-1.11,1.12,1.12,0,0,0-1.11-1.16,1.14,1.14,0,0,0-1.16,1.11v0a1.13,1.13,0,0,0,1.09,1.14Z" transform="translate(616.67 -50.94)"/><path id="Path_3830" data-name="Path 3830" class="cls-4" d="M1111.66,152.12a1.14,1.14,0,0,0,0-2.28,1.15,1.15,0,0,0-1.16,1.12v0a1.12,1.12,0,0,0,1.11,1.12Z" transform="translate(616.67 -50.94)"/><path id="Path_3831" data-name="Path 3831" class="cls-4" d="M1111.66,131.53a1.11,1.11,0,1,0-1.11-1.11h0a1.09,1.09,0,0,0,1.07,1.11Z" transform="translate(616.67 -50.94)"/><path id="Path_3832" data-name="Path 3832" class="cls-4" d="M1111.66,111a1.14,1.14,0,0,0,0-2.28,1.15,1.15,0,0,0-1.16,1.12v0a1.12,1.12,0,0,0,1.11,1.12Z" transform="translate(616.67 -50.94)"/><path id="Path_3833" data-name="Path 3833" class="cls-4" d="M1111.66,90.39a1.11,1.11,0,1,0-1.11-1.11h0a1.09,1.09,0,0,0,1.07,1.11Z" transform="translate(616.67 -50.94)"/><path id="Path_3834" data-name="Path 3834" class="cls-4" d="M1094.14,111a1.14,1.14,0,1,0-1.11-1.16v0a1.12,1.12,0,0,0,1.11,1.12Z" transform="translate(616.67 -50.94)"/><path id="Path_3835" data-name="Path 3835" class="cls-4" d="M1094.14,90.39a1.16,1.16,0,1,0-1.16-1.16h0A1.16,1.16,0,0,0,1094.14,90.39Z" transform="translate(616.67 -50.94)"/><path id="Path_3836" data-name="Path 3836" class="cls-4" d="M1076.62,111a1.12,1.12,0,0,0,1.14-1.13,1.14,1.14,0,0,0-2.28,0v0A1.14,1.14,0,0,0,1076.62,111Z" transform="translate(616.67 -50.94)"/><path id="Path_3837" data-name="Path 3837" class="cls-4" d="M1076.62,90.39a1.09,1.09,0,1,0-.8-.31A1.08,1.08,0,0,0,1076.62,90.39Z" transform="translate(616.67 -50.94)"/><path id="Path_3838" data-name="Path 3838" class="cls-4" d="M971.44,111a1.14,1.14,0,1,0-1.11-1.16v0A1.14,1.14,0,0,0,971.44,111Z" transform="translate(616.67 -50.94)"/><path id="Path_3839" data-name="Path 3839" class="cls-4" d="M971.44,90.39a1.11,1.11,0,1,0-1.11-1.11h0a1.11,1.11,0,0,0,1.11,1.11Z" transform="translate(616.67 -50.94)"/><path id="Path_3840" data-name="Path 3840" class="cls-4" d="M1017,131.32l9.87,15.56,9.88-15.56Z" transform="translate(616.67 -50.94)"/><path id="Path_3841" data-name="Path 3841" class="cls-4" d="M1017,50.94l9.87,15.56,9.88-15.56Z" transform="translate(616.67 -50.94)"/><path id="Path_3842" data-name="Path 3842" class="cls-4" d="M1017,320.48,1026.9,336l9.88-15.55Z" transform="translate(616.67 -50.94)"/><path id="Path_3843" data-name="Path 3843" class="cls-4" d="M1017,240.07l9.87,15.56,9.88-15.56Z" transform="translate(616.67 -50.94)"/><path id="Path_3844" data-name="Path 3844" class="cls-4" d="M1017,206l9.87,15.55,9.88-15.55Z" transform="translate(616.67 -50.94)"/><rect id="Rectangle_207" data-name="Rectangle 207" class="cls-4" x="1389.37" y="714.43" width="530.63" height="14.07"/><path id="Path_3845" data-name="Path 3845" class="cls-6" d="M1265.39,716.9a28.25,28.25,0,1,0-28.23-28.27v0A28.27,28.27,0,0,0,1265.39,716.9Zm0-51.82a23.57,23.57,0,1,1-23.55,23.6v0A23.59,23.59,0,0,1,1265.39,665.08Z" transform="translate(616.67 -50.94)"/><rect id="Rectangle_208" data-name="Rectangle 208" class="cls-4" x="1889.01" y="93.27" width="4.64" height="462.16"/><rect id="Rectangle_209" data-name="Rectangle 209" class="cls-6" x="1333.1" y="425.91" width="120.92" height="5.05"/><rect id="Rectangle_210" data-name="Rectangle 210" class="cls-6" x="1225.95" y="425.91" width="28.67" height="5.05"/><circle id="Ellipse_183" data-name="Ellipse 183" class="cls-4" cx="1806.93" cy="4.13" r="3.27"/><circle id="Ellipse_184" data-name="Ellipse 184" class="cls-4" cx="1806.93" cy="46.45" r="3.27"/><circle id="Ellipse_185" data-name="Ellipse 185" class="cls-4" cx="1806.93" cy="88.75" r="3.27"/><circle id="Ellipse_186" data-name="Ellipse 186" class="cls-4" cx="1806.93" cy="131.07" r="3.27"/><path id="Path_3846" data-name="Path 3846" class="cls-4" d="M1193.55,224.34a3.29,3.29,0,1,1-3.29-3.29,3.29,3.29,0,0,1,3.29,3.29Z" transform="translate(616.67 -50.94)"/><circle id="Ellipse_187" data-name="Ellipse 187" class="cls-4" cx="1806.93" cy="215.69" r="3.27"/><path id="Path_3847" data-name="Path 3847" class="cls-4" d="M1193.55,309a3.28,3.28,0,1,1-3.29-3.27A3.28,3.28,0,0,1,1193.55,309Z" transform="translate(616.67 -50.94)"/></g></g></g></svg>