<svg id="Layer_1" data-name="Layer 1" xmlns="http://www.w3.org/2000/svg" viewBox="0 0 98.79 98.79"><defs><style>.cls-1{fill:#e8bc23;}</style></defs><g id="chip"><g id="Group_39" data-name="Group 39"><g id="Group_38" data-name="Group 38"><path id="Path_997" data-name="Path 997" class="cls-1" d="M99.54,262.47l-1.8,2.29a31,31,0,1,1-50.18,25.81v0c0-.46-.05-.94-.05-1.43A31,31,0,0,1,71.13,259a29.81,29.81,0,0,1,7.4-.9h.09v.08h2.09a31.11,31.11,0,0,1,14.07,4.5l1.52-2.47a33.88,33.88,0,0,0-14.9-4.9,33.92,33.92,0,1,0-57.81,26.81l.54.53,1.3,1.3.06-.06A33.8,33.8,0,0,0,44.73,292a33.93,33.93,0,1,0,54.8-29.52Zm-21.07-7.29a33.54,33.54,0,0,0-6.33.62,24.51,24.51,0,0,0-6.11-14l4.52-4.52A30.86,30.86,0,0,1,78.47,255.18Zm-29.41-28a30.77,30.77,0,0,1,19.42,8.05L64,239.76a24.39,24.39,0,0,0-14.9-6.18Zm-2.92,0v6.38a24.39,24.39,0,0,0-14.9,6.18l-4.52-4.51A30.79,30.79,0,0,1,46.14,227.2ZM24.66,237.3l4.52,4.52A24.35,24.35,0,0,0,23,256.73H16.62a30.73,30.73,0,0,1,8-19.43Zm.77,42.54a31,31,0,0,1-8.81-20.2H23a24.73,24.73,0,0,0,6.93,15.71Zm19.17,9.22a31,31,0,0,1-17-7.23l4.51-4.51a24.42,24.42,0,0,0,10.6,5l.58-2.85a21.74,21.74,0,1,1,26-23A33.9,33.9,0,0,0,44.6,289.06Z" transform="translate(-13.67 -224.25)"/><path id="Path_998" data-name="Path 998" class="cls-1" d="M75.44,299.85h1.63V303H80v-3.18h1.63a4.55,4.55,0,0,0,4.55-4.55v-3.09a4.55,4.55,0,0,0-4.55-4.55H75.44A1.64,1.64,0,0,1,73.8,286v-3.09a1.63,1.63,0,0,1,1.64-1.64h6.18a1.63,1.63,0,0,1,1.64,1.64V286h2.91v-3.09a4.55,4.55,0,0,0-4.55-4.55H80V275.2H77.07v3.18H75.44a4.55,4.55,0,0,0-4.55,4.55V286a4.55,4.55,0,0,0,4.55,4.55h6.18a1.64,1.64,0,0,1,1.64,1.64v3.09a1.63,1.63,0,0,1-1.64,1.64H75.44a1.63,1.63,0,0,1-1.64-1.64v-3.09H70.89v3.09A4.55,4.55,0,0,0,75.44,299.85Z" transform="translate(-13.67 -224.25)"/><path id="Path_999" data-name="Path 999" class="cls-1" d="M52.33,289.11a26.2,26.2,0,1,0,26.2-26.2h0A26.24,26.24,0,0,0,52.33,289.11Zm49.49,0a23.29,23.29,0,1,1-23.29-23.28,23.29,23.29,0,0,1,23.29,23.28Z" transform="translate(-13.67 -224.25)"/><rect id="Rectangle_154" data-name="Rectangle 154" class="cls-1" x="78.78" y="63.41" width="3.09" height="2.91"/><rect id="Rectangle_155" data-name="Rectangle 155" class="cls-1" x="47.85" y="63.41" width="3.09" height="2.91"/><path id="Path_1000" data-name="Path 1000" class="cls-1" d="M32.23,258.19h2.91A12.48,12.48,0,0,1,47.6,245.72v-2.91A15.39,15.39,0,0,0,32.23,258.19Z" transform="translate(-13.67 -224.25)"/><rect id="Rectangle_156" data-name="Rectangle 156" class="cls-1" x="18.55" y="37.03" width="2.91" height="3.09"/></g></g></g></svg>